<mxfile host="65bd71144e">
    <diagram name="PÃ¡gina-1" id="oCdKTCRSYGWGG-l59IJN">
        <mxGraphModel dx="1727" dy="973" grid="1" gridSize="10" guides="1" tooltips="1" connect="1" arrows="1" fold="1" page="1" pageScale="1" pageWidth="827" pageHeight="1169" math="0" shadow="0">
            <root>
                <mxCell id="0"/>
                <mxCell id="1" parent="0"/>
                <mxCell id="DK2IOqEPTwvK7rf-bx8x-2" value="" style="shape=image;verticalLabelPosition=bottom;labelBackgroundColor=default;verticalAlign=top;aspect=fixed;imageAspect=0;image=data:image/png,iVBORw0KGgoAAAANSUhEUgAAB2QAAAIVCAIAAACBWtjNAAAAKnRFWHRjb3B5bGVmdABHZW5lcmF0ZWQgYnkgaHR0cHM6Ly9wbGFudHVtbC5jb212zsofAAACVmlUWHRwbGFudHVtbAABAAAAeJztVcFO20AQve9XjNJD4RAUKELUhyokBpTUERGBXNHgDNEWezfdXdMixCf11E/gxzpL7WSdmLbXSvHF0s57M2/fjMdd69C4Is+Eky4jmFBaGIKptFIraMP1KIFY4txgLsQC03ucE7RidNhDSy14EsBPmqG1YD1XOrqxXzN+lbFn8RwwJ6mRC1fnxXGyxAano6QxQ6+wUhEDEj2XaT3TucFbTFk52V7WkHNMxmqFzcFLmkvrjA6jYeE+5mhwsKiXrE4bKd6nkzRltW/qjFE3aBnEJxdv628OVvrD6OtrJefqotKx6UkQeF6DLJ35Aya40gaqbsoZzxJ90+a+7skY3el3Wjg/d01eXlsyMFCOzB2yoxV51Z7COp0zpq8Va802b1ohSkCDzHrGM23yBr9Q0d+5l2R1YVLa5A9yBjS5FJS4+YIP2Gzje+5GVhlNfBF6JZEV9eFvtz+tj1kEhccFH4EHBTNVAsIPwSPCwSohy6n38dY06UMibw2ax1aJAHhXCn35qSDlnmYIGWPIvPxAYIZYU7cmmPPkqNiqpWBfPhAcIkKFoeIQ0yU183tOdLcrb7vytivv/1l528X2b4ttnKFyfns9cCI/U/t7B52Dw72jnQk6GBYZdI6g8zHaP4w+HMP1VR98eFfsnI8T+N07mPn08rbwM7krhr4nl4VyMqcILhakhvHn6gBO1YM0WuX8FxLD6WgFODps96TjxWpYCUxHIqY7LDLHjFTPpJpHXP2sfSwSVPOCLxHxn0z0Nec1jxybiF9kFyHmWiAFrwAAgABJREFUeF7snQecFEX2x4e0ZFiCCiJJsmQWWBB2lyULSlzJZjm4v4EczjsEBAH/KkHvb+IO03lIOsn5RJQgoCQ5QVAQCaLiQt8JKCjzf07dlk11de1UTc/uhN/3w4fPdFX16+r3Xr2qetvT4/MDAAAAAAAAAAAAAAAAiHt8YgEAAAAAAAAAAAAAAACA+APJYgAAAAAAAAAAAAAAAABIFgMAAAAAAAAAAAAAAABAshgAAAAAAAAAAAAAAACAH8liAAAAAAAAAAAAAAAAAH4kiwEAAAAAAAAAAAAAAAD4kSwGAAAAAAAAAAAAAAAA4EeyGAAAAAAAAAAAAAAAAIAfyWIAAAAAAAAAAAAAAAAAfiSLAQAAAAAAAAAAAAAAAPiRLAYAAAAAAAAAAAAAAADgR7IYAAAAACDyuXr16ocffjh//vy333773Xff/f7778UWEcO+fft27dp16NAhoXzv3r1UfvjwYfo8fvz4gQMHvvzyy0IbgSCbeQ51krpKHeYlJ06c2BXgypUrvAHx+eef/3aa3//ZZ5+x8qNHj7ISpyg3uMzdu3cfPHjw3LlzYovcUwgAAAAAAIgfkCwGAAAAAIhojh07Vr9+fd+1vPnmm2K7yKBXr17UvZIlS/7444+88OjRo6zbEydOpMO6devS53vuuYc3kBJkM8/p1KkTXbdMmTK8ZNSoUaz/3333HW9AXH/99T/99BNrY1lWsWLFWPnAgQPdRLnBZXJq1Kjx3HPPXb16lbfJLYUAAAAAAID4AcliAAAAAICIpnPnzj6fLzEx8Xe/+92IESO6detWokSJuXPniu0ig2XLlrFc56JFi3jhE088wQq/+OILOlyxYsWbb765bdu2306TEWQzz3FmeN2SxT5b1n7WrFm80DhZnD9//uTk5CpVquTNm5eJ6tu3L88X55ZCAAAAAABA/IBkMQAAAABARFOyZEmfz/f000/zkkuXLn377bf8cPXq1b17927YsGGLFi3Gjx8vvKRi48aN/fv3b9y4cVJS0oABAw4cOECFQ4YM6du37+uvv87azJkzhw4fe+wxdjh69Gg6fOGFFxYvXpyWlta1a1dWrr4Q4/Lly9dddx11uHv37rywVq1aVNK6dWt2yOWzw3379t17773JycmNGjXq2LEj1WZmZjqb+QPZ0p49ezZo0KB58+aPPPLIsWPHeBVvvHTp0rZt25K0yZMns7dG6OLM8EqTxUWLFqX/qSf+wHtCqlevzguNk8W85dGjR1u2bMku+tZbb7FCQSHz5s3LyMggW9SrVy8lJYXMx/RG0I1PmzaNlECqWLBgwcsvv0wnjhw5UpBjt69CGp3I2r/22mvUIDU1dfny5WRo0jA5VefOnTdv3sxaAgAAAACAaAfJYgAAAACAiKZSpUo+n4/+nzFjxubNm+2vdyCmT5/OUoq1atUqVaoUfahZsyZ/4+1TTz3FavPkycNeksCehL3hhhvo8/Dhw1mzvn370mFSUhI7ZK87qFq1Kp1FH6pVq5bthew8+uijVJuQkMCyyTt37mQn8qeh7a9TyMzMZNIqVKjQoEGDEiVK0OeDBw8KzYgpU6YwOYUKFWIdS0xMZLlv3vjGG29kbRh0+6xWC2eGV5osTk5Obty4MX2gG1yxYgV9aNu2LUuLh54s9gdeP8Iu2qVLF1YiKKRdu3ZFixatU6dOvXr12JPIZEH2GDIzgS/wqLIvSy3UN7scwb4KaeymmM8w8uXLRzfLD4sUKXL69GkmHAAAAAAARDVIFgMAAAAARDSvvPIKS+oxihYtet9997Gs5enTpwsUKECFU6dO9QcSryyj9/jjj9trW7Vq9c0331DJgQMH9u/f789KFo8aNYpdQpos9gVeMbx3795NmzapLyTw8ccfs9NffPFFf1bisnDhwpZlsQb2pOcHH3zgC+R/L1y44A88ortlyxaWg7Y3O3XqFMt7UlevXLly9OjRsmXL0iF/6pk1pjZr166lm61du7YvcOOslkPyL9kQahnOvK1bsnjevHn04a677urQoQN9WLp0qYfJYqJChQpUWL16dXYoJIt37tzJ35i8Zs0a1sMdO3acPHmS6SojI4MakAWLFCnicySLfTb7KqT5s5LFZEE6JBfimXrypa1bt7KWr776KjsXAAAAAABENUgWAwAAAABEOtu2bRs8eHDlypVZYo7o3LkzlS9atIgf9g3AcrhpaWn22g0bNggCg0kWN2vWjLdXX8hJvXr1fIH3Tvz888+sZf/+/XmtPen59ddfFyxYkA7Lli2bmpr68MMPs9yl0GzhwoWsAx988AGrfeCBB3yB1Lm9cceOHdnh/fffT4c333wzO+Sw3DTnP//5j9DAn/WSaGmy+OzZs35bsvjSpUvUrECBAnny5KlSpcovv/zibbK4dOnSVFinTh12KCSLd+zYkZGRUbNmzfLly7PUuS/wquiVK1eyz/ztED169PA5ksV2+/rdpfmzksX8AefExEQ6HDRoEDtkielp06ZxUQAAAAAAIHpBshgAAAAAIGo4cuRIixYtfIFHaK9cufLGG2+wpF61atVq2ejRowc15rU7d+4U5LAE7ogRI9jh7bff7nMki3k20G8TJb2Qk6efftoXePfFiy++yE5cu3YtrxWSnhs2bGjfvj17AQVjyZIlQjPegd27d7Oz2APLpAepzCFDhtBh5cqV2SFn69atBW388MMPQgOiZ8+evsBrNHjJgw8+yK5+8eJFvy1ZTJ/Hjx/PqthLpWt5lyzesmULk9yvXz9WYr/HEydOFC9enA7r168/bNgw3sP58+e/88477POHH37ITuzTp4/PkSy221chzZ91U1y3wl8a8uXLR4dTpkzJEgYAAAAAAKIYJIsBAAAAACKaCRMm8Dfz+rMSl8WLF7969epHH33EknpLly7lDS5dunT8+HH6wGv5L9cR7Flalv7r3bs3fT537hx7glVIFvPkoN8mSnohJ6dPn2Y5RPYChBtvvPHnn3/mtXb5V65c+eWXX/yBF0R8+eWX9evXp6r77rtPaLZr1y7Wgeeff541btq0KR1SG6dMv3uyOBj+9Kc/sWutX7+eDn/44Yebb77ZF3jJL2tgTxZ/9dVXdKd0m+zn4DxJFp89e3bx4sU33XQT6wZ/QFj6qDUpjQ7508Tz588/cuQI+zxu3Diq+uabb0isz5EstttXIc2PZDEAAAAAQDyBZDEAAAAAQETDcnM1atTo2LEj+0U1ok+fPqw2PT2dDkuVKjV27Njp06fff//9ZcqUYU+5+gO/Wsbad+rUaejQoUlJSewH7vr378/KO3ToULFiRfYWWkWy2J/dhZzcdttt7BIEnWKvsss/ePBghQoVqG8zZsyYNGkSe8XBxIkThWZESkqKL/B24/vuuy8tLY1JnjdvnlOmP7Rk8RdffFG4cGE6vWDBgsnJyeXKlWPXmjlzJmtgTxYTP/74I3/brzRZ7Av8IhzHnrvn2FuyD77Ao9n23+iz3+O2bdtYm169ek2ZMoX/sh9L7/bu3ZsdUn9KliwpfWex3b5qaUgWAwAAAADED0gWAwAAAABENGPGjKlWrRpL3hF58+a9/fbb2ctz/YHfmhs0aBD79TlfIL3YqFEj9kgscf78+XvvvTchIYHVFixYcMWKFf7A6yxq1KjBCvv168feaatOFqsv5OTtt99mLQn7k9H+a+V/9dVX7LldBt1dz5492dshhG7QLd955508l1qmTJnZs2dLZfpDSxYTmzZtYq9dZiQmJk6ZMuXq1ausVkgW23FLFtthD/wK8Jak2CJFipDF+/fvv2XLFnsb4R6HDx/OsvwlS5acM2cOO52ld8+dO0enk5zrrrtuwoQJ7J3UDRo0kMrJVhqSxQAAAAAA8QOSxQAAAAAAUcD58+cPHjy4f/9+y7LEOr//woULBw4cOHTo0L///W+xzu+/ePEi1dLp7JW7jF9++eXIkSOnTp2yNcwe9YWMOXfu3KcBpHdnhxrs27fvs88+s7/XIkx8/fXXe/fuPXz4cA5cy4yzZ89+8sknly5dEspPnz595coV9pk8hz0pbP+NQSlu0gAAAAAAQPyAZDEAAAAAAAAxxaxZsypUqJCRkdG/f3/2Go0iRYrs27dPbAcAAAAAAMC1IFkMAAAAAABATLFu3brGjRsXLVo0T5481113XUZGBjLFAAAAAAAgGJAsBgAAAAAAAAAAAAAAAIBkMQAAAAAAAAAAAAAAAAAkiwEAAAAAAAAAAAAAAAD4kSwGAAAAAAAAAAAAAAAA4EeyGAAAAAAAAAAAAAAAAIAfyWIAAAAAAAAAAAAAAAAAfiSLAQAAAAAAAAAAAAAAAPiRLAYAAAAAAAAAAAAAAADgR7IYAAAAAAAAAAAAAAAAgB/JYgAAAAAAAAAAAAAAAAB+JIsBAAAAAAAAAAAAAAAA+JEsBgAAAAAAAAAAAAAAAOBHshgAAAAAAAAAAAAAAACAH8liAAAAAAAAAAAAAAAAAH4kiwEAAAAAAAAAAAAAAAD4kSwGAAAAAAAAAAAAAAAA4EeyGAAAAAAAAABANHL8+PFNIAfZtm3bzz//LJoBAABAbIFkMQAAAAAAAACAKGPq1Kn58uXzgZylSpUqu3btEo0BAAAghkCyGAAAAAAAAABANHHmzJl8+fINGjRIfPYVhJMlS5ZUq1atatWqeL4YAABiGCSLAQAAAAAAAABEE1u2bPH5fBs3bhQrQJhZvnw5aX7VqlViBQAAgFgByWIAAAAAAAAAANHEpk2bfD4f/S9WgDBz+fLlsmXLDhw4UKwAAAAQKyBZDAAAAAAAAAAgmnAmiw8fPrxr1669e/fykhMnTuwKcOXKFV4YDpyXzgE++uijsWPH3nXXXQMHDvz888/F6nAydOjQYsWKXbhwQawAAAAQEyBZDAAAAAAAAAAgmnAmizt16kQlZcqU4SWjRo1iv8n23Xff8cJw4Ly0gieeeKJu3bp33HGHWKHD3r178+fPTxfNmzdvwYIFd+zYIbYIJ5s3b6ZLz58/X6wAAAAQEyBZDAAAAAAAAAAgmojeZPGQIUOoca1atcQKHWbMmEFCEhISzp07J9aFn6tXr1asWLFbt25iBQAAgJgAyWIAAAAAAAAAANGEQbJ437599957b3JycqNGjTp27Dh69OjMzEzeePXq1b17927YsGGLFi3Gjx///fffs3Jq1rdv3xdeeGHx4sVpaWldu3blp3CES/NTli5d2rZtW7ri5MmT2aswxo0bV61aNWpcvHjxvgHee+89dlbwHZg6deott9xCQgoUKMCE/PLLL/PmzcvIyKBz69Wrl5KS8thjj9nvjti4cWP//v0bN26clJQ0YMCAAwcOsHK36/qVGqPPCQkJwiUAAADEBkgWAwAAAAAAAACIJnSTxZmZmaVKlaLPFSpUaNCgQYkSJejzwYMHWcvp06ezlrVq1WLNatasyR7arVu3Lh1WrVo1T5489KFatWpcPke4NDvlxhtvZDIZTz31FFU1bNjQXki8+uqrfs0OtGvXzibgV65cuUKFRYsWrVOnTr169fLmzUuFSUlJV69eZV2iq7OWJKRYsWL04c0331RfV62x3bt30+HcuXPZIQAAgFgCyWIAAAAAAAAAANGEbrL4gw8+oA+FChViP8t29erVLVu2sKzo6dOnCxQoQLVTp071B5KkN9xwAx0+/vjj/qxcLTFx4sS9e/far8iRJovz58+/du3ab775pnbt2nTYqlUrqjp79uzdd99Nh9WrV/86wMWLF3U7QA2GDx9OJSVKlGBCqNnOnTt/+ukn1oE1a9awU9i7jLl86gP1h0oOHDiwf/9+9XUVGmPQfaWnp/NDAAAAMQOSxQAAAAAAAAAAoglnsrhz584+l2Tx2bNnv/7664IFC9LnsmXLpqamPvzww/zcRYsWsWYkgb3VgeVM09LS/Fm52mbNmnGxTqTJ4o4dO7LD+++/nw5vvvlmduh8Z7FBB/74xz9SYcmSJXnJjh07MjIyatasWb58ebpHJpAk+23yN2zY8JuI7K6r0Bhj8uTJ+fLlO3XqlL0QAABADIBkMQAAAAAAAACAaMKZLO7Zs6cv8JtvvOTBBx9kydCLFy/S4YYNG9q3b89ep8BYsmQJlb/xxhvssFq1arVs9OjRw5+Vqx00aBAX60SaLL7nnnvYIcsOV65c2X5oTxYbdEBIFp84caJ48eJUUr9+/WHDhvEbnz9/vl3+zp077ULU1/W7a4xx+PBhKpk5cyYvAQAAEBsgWQwAAAAAAAAAIJpwJov/9Kc/sYTm+vXr6fCHH364+eabfYG3/dLhlStXfvnlF3/gdQpffvll/fr1qeq+++6jko8++oiduHTpUi7t0qVLx48f9zsyv1K0ksWPPvqo/dBv1AEhWbxw4UImgW6NDleuXMkOWbKYy3/ssce4hP/85z/q6yo0xmkWwF4CAAAgBkCyGAAAAAAAAABANOFMFn/xxReFCxemwoIFCyYnJ5crV45lQtmjrwcPHqxQocLQoUNnzJgxadKkxMREX+AtwOzc9PR0OixVqtTYsWOnT59+//33lylT5umnn/a75GoFtJLFf/7zn1nHGjVqlJaWxjKzuh0QksXbtm1jMnv16jVlyhT+23osWUzw38SjrpISkpKS2A/cKa6r1hiDdEuFhw8fthcCAACIdpAsBgAAAAAAAAAQTTiTxaywXr16LCtKJCYmTpky5erVq1T11VdfsQeNGXnz5u3Zs+cPP/zATszMzBw0aBD7tTciT548jRo1Yk8oS3O1AlrJYrpoRkYGy70SBw8e9Ot3wPnO4uHDh9NZrHDOnDlMDk8Wnz9//t57701ISGDlBQsWXLFihV95XbXGGKdOncqXL9/kyZPthQAAAKIdJIsBAAAAAAAAAEQT0mQx4+uvv967d+/hw4d//vlnoercuXOfBrAsS6giLly4cODAgUOHDv373/8W63KEEDtw9uzZTz755NKlS2JFFhcvXiT5Bw8eZC9x5iiuq9aYP/Bscu3atcVSAAAA0QySxQAAAAAAAAAAoglFshjkJHPnziVD7N69W6wAAAAQtSBZDAAAAAAAAAAgmkCyOELIzMxMSEgYPXq0WAEAACBqQbIYAAAAAAAAAEA0gWRx5NCtW7eKFSuyd0MDAACIAZAsBgAAAAAAAAAQTSBZHDnMnz+fbLF582axAgAAQHSCZDEAAAAAAAAAgGgCyeLI4cKFC8WKFRs6dKhYAQAAIDpBshgAAAAAAAAAQDSxYsUKn883a9asTSACaN++fcmSJVeuXClWAAAAiFS2b99+6dIlcX4NgGQxAAAAAAAAAIBoYtasWT4AAAAAhEChQoVmzpzpfOk8ksUAAAAAAAAAAKKJlStX0i539uzZ74EIYOPGjWQLPFkMAABRxJo1a/r27UuT6cyZM4VJFsliAAAAAAAAAADRxCa8sxgAAAAImT59+hQuXFh4HwWSxQAAAAAAAAAAogkkiwEAAIDQWb16Nc2n27dvtxciWQwAAAAAAAAAIJpAshgAAAAIHel8imQxAAAAAAAAAIBoQrq5BQAAAIAW0vkUyWIAAAAAAAAAANGEdHMLAAAAAC2k8ymSxQAAAAAAAAAAognp5hYAAAAAWkjnUySLAQAAAAAAAABEE9LNLQAAAAC0kM6nSBYDAAAAAAAAAIgmpJtbAAAAAGghnU+RLAYAAAAAAAAAEE1IN7cAAAAA0EI6nyJZDAAAAAAAAAAgmpBubgEAAACghXQ+lSeLjx8/vikO2Lp1608//STePAAAAAAAAACACGaTbHMLAAAAAC2k86kkWTx16tR8+fL54oPExMTx48dfunRJ1AIAAAAAAAAAgIhEurkFAAAAgBbS+VRMFp85cyZfvnyDBg1iz97GNkuXLu3fvz/db7t27QQ9AAAAAAAAAACITDbJNrcAAAAA0EI6n4rJ4i1btlCjjRs3CuUxzLx58+iWV69eLVYAAAAAAAAAAIg8pJtbAAAAAGghnU/FZLG0UWxz+fLlsmXLDhw4UKwAAAAAAAAAABB5xOG+FQAAAPAc6XyqkSw+cODAwoUL33rrrffff//HH38UqyOJw4cP79q1a+/evWKFC0OHDi1WrNiFCxfECgAAAAAAAAAAEYZi3woAAACAIJHOp0Eli7du3Vq/fn2fjdKlS//zn/+0t4koOnXqRJ0sU6aMWOHC5s2bqf38+fPFCgAAAAAAAAAAEYZ03woAAAAALaTzafbJ4q1btxYsWJAK8+XL161bt+HDh/fo0aNEiRKvvvoqbxNp6CaLr169WrFiRbo7sQIAAAAAAAAAQITh3LcCAAAAQBfpfJp9srhRo0ZUkjdvXvujxOfPnz9y5Ig/8OtwGRkZLVq0qFevXkpKymOPPZaZmcmbjRw5sm/fvi+88MJrr71GbVJTU5cvX3758uXJkycnJSV17tx58+bNrKVazujRo5mcxYsXp6Wlde3aVX2KkCzmpy9YsIBOb9KkyaRJk6gbXD5rk5CQYL8o8Jbjx49vigO2bt36008/iTcPQiACPWfbtm0///yz2FEQu0SgE8YYiJwAADMQnwXiaomyybFvDQX4UlQQAx6e654WAzo0I9c1H27i1rIgdDbJ5tNsksVffPGFL0BGRsY17bJo165d0aJF69SpU69evbx581LLpKSkq1evstpatWpRyQ033MCE+AKPJ7dt25YfFilS5PTp09nKqVu3LpVUrVo1T5489KFatWrqU4RkMTu9fPny9H/+/PnZpR966CFWy9i9ezcVzp07114IvGLq1Klkeqb5mCcxMXH8+PGXLl0StQD0iVjPqVKlyq5du8TuglgkYp0wxkDkBADogvgsJX6WKNLNrRnwpSgiqj08QjwtqnVoRoRoPtzEoWWBJ0jn02ySxRs2bGBu9+STT17TLoudO3fyp4HWrFnDGu/YsYOVsGRx4cKFqeTAgQMs1Usbwv3792/dupU1Zq+zUMth2V5i4sSJe/fuZd1TnCJNFhcqVOjjjz++fPly//79fYGs8cmTJ1kDRu3atdPT0+0lwBPOnDlDoXnQoEGb4oClS5eSg9H9tmvXTlQE0CRiPWfJkiXVqlWrWrUq/ngb80SsE8YYiJwAAF0Qn6XE1RJlk2xzawB8KYqIag+PEE+Lah2aESGaDzdxaFngFZtk82k2yeJ3332XJWEff/zxa9plsWPHjoyMjJo1a5YvX75s2bKs8aJFi1gtSxZ36dKFHSYmJtIhjVJ2yB7ynTZtWrZyWLa3WbNm7JChOEWaLGYvryC2b9/OGq9cuZJLIyZPnkxB5NSpU/ZCEDpbtmwhbW/cuFGsiF3mzZtHt7x69WqxAugQyZ6zfPly6tuqVavEChBbRLITxh6InACA4EF8diN+lijSza0B8KXoIno9PHI8LXp1aEbkaD7cxJtlgVdI59NsksVnzpxhjwNLH7k9ceJE8eLFqbZ+/frDhg178MEHfQHmz5/PGrBk8T333MMO2fsoRo0axQ7ZFwGmTJmSrRyW7eVZZn92l5Ymi/v06cMO9+3bxxovWLCACyQOHz5MhTNnzrQXgtCRel5sc/ny5bJlyw4cOFCsADpEsufAxHFCJDth7IFhBQAIHsRnN+InlnrlA17JATlD9Hp45Hha9OrQjMjRfLiJN8sCr5COkWySxUTnzp1ZanX27Nm8cM+ePTt37ly4cCGr+vLLL6lw5cqV7FA3WZytHJbt5XII9SnSZHGlSpXYayv+/Oc/s8a7d+/mAhnNAgiFIEScTnX48OFdAcgEBw8ePHfu3G+twwC/HEGue/z4cf467PAxdOjQYsWKXbhwQawAQeP0HIJs9+GHH9JIf/vtt999993vv//eXhs848ePp3n05ZdfFiuCBiaOB5xOGKZ4ErpDegW7wb1794oVIRD83WFYAQCCRB2fOd99991v58QQ6rgaJ7HU6QNmKOQcOHCAdp1vvfXW+++//+OPP4rVsUhk3rLg8FHq4U5Py8WoFaU6NEOteQ/X85FAXFkWeIVzjPiDSRYfPXqU/0Jd5cqV09PTq1at6gu8a3jbtm2svFevXlOmTLnxxhvZoW6yOFs5zmSx+hRpsjhPnjyNGjUaMGBAwYIF6bB58+ZcGmfmzJlURbFDrAAh4HQqZiA7NWrUeO6554KM0U888QTZ9I477hArXHBerly5crQMEtt5yubNm302HwYGOD3n2LFj9evXF6z55ptv/nZO0DijigKpy8HE8YDTCcMUT7QcMqwIE6gnBH93GFYAgCAJJj77YvfHq9VxNU5iqdMHzJDK2bp1q7DmLF269D//+U97G12k68nIIRy37PforgWHj1IPd3paLkatKNWhGcFovlKlSuvXr//tnKglriwLvMI5RvzBJIuJkydPDhw4sHDhwnwstWzZcs+ePVQ1fPhw9p6KkiVLzpkzh9XqJouzlSNdDylOkSaL77zzzq5du7JmNWvWPHjwoF0a49SpU9SryZMnixUgBJxOxQyUP3/+5OTkKlWq5M2bl9mlb9++weSLhwwZQo3Ju8QKF9jlChUq9NBDDw0ePJgcgw4TEhKMH0oNBrqRihUrduvWTawAQeP0HPZFh8TExN/97ncjRowg9ZYoUcJsRbVixYo333xz27ZtYoUMqcvBxPGA0wnDFE+0HDKshCNZHPzdYVgBAILELT6z5SVn2bJlv50TQ0g3R5w4iaVOHzDDKWfr1q3s6SLaGJIaadfZo0cPWnOyH2Y3RrqejBDCdMt+j+5acPgo9XCnp+Vi1IpSHZrhpvkCBQp07dq1VatWLB1RsmTJy5cv/3ZadBJXlgVe4Rwj/iCTxYyffvrps88+O3DggGVZ9vKzZ89+8sknly5dshcaYCAnyFPss8tXX3316aef/vLLL2KjLNLT02vXri2WghBwOpWQjDh69GjLli19Ad566y1WOG/evIyMjBYtWtSrVy8lJeWxxx7LzMyk8nHjxlWrVo1aFi9evG+A9957T9HeeTn+HhKeuVCcu2/fvnvvvZem7UaNGnXs2HH06NG8ili9enXv3r0bNmxI544fP17IFlHjhIQEe3ughdNzaAqnkqeffpqX0PD/9ttv+eHGjRv79+/fuHHjpKSkAQMGULzyBwxBfvLCCy8sXrw4LS2N/dYlL2Qn8sMFCxZQmyZNmkyaNIktF9xcjp0FE8c2TifMNp7Qpoic5PXXX2eHc+bMoUOKKuzQLaS4OeTSpUvbtm1L7SdPnnzlyhVW63cPPm7y1VV21MniFStW9OzZs0GDBs2bN3/kkUeOHTvGyqlv06ZNI+HUWxpEL7/8MvV/5MiRrFa4O7/LUOWNMawAANmSbXwWcC4GFMs/giIYa//aa69Rm9TU1OXLl9PCgKIxBa7OnTtv3rzZJl4eltevX09CKPayNiSNDum6/sCbJSn60eH777/Pat0CrF/WefvuhvZow4cPpwYPP/zwxYsX+SkxH0udPmCGUw5NlFSSN29e+3O158+fP3LkiN90ondbTyrsruWEUg9kOP2HV3HUt+xX9lOxaJHetVt/FJdw/nUkGj3c6WnqqOV314lUh1oOw4REnQ7NyFbzI0aM8AWwP1DoNqbcxjjDzWTquCE1qN99wezWN0b8WBZ4hXOM+LWSxdGLc3ZRMHfuXJ/sdcbAGKdTOedFCqMsQHfp0oWVtGvXrmjRonXq1KEVPPtbH4XIq1evUkxkLTnsL95u7fnlSpQoQX1Yt25denq6L7Bk4VHV7VyKsKVKlaLDChUqUMQnCT7bFDJ9+nTWgVq1arFmNWvWtL9/mbzIl1PfJIpJnJ5TqVIlX+BbQjNmzKDljvAmtaeeeopZJE+ePMWKFfNlvaGCRYCqVauy7yLQmpUX8rDADsuXL+8L/HmfyXnooYeoys3l/DBxHOB0wmzjCfsODe3b2SGt/HyBkEKfFSFF6pD8DUsM8nBW6xZ8FPIVVQLO+MyZMmUKu26hQoXYaEpMTGTL1kcffZRVseHDes4fIxLuzm2oMjCsAADB4BafKSC/Y4O/t9G5GHBb/rH27PuR/F18vsATl23btuWHRYoUOX36NGvsFpY//vhjVn7o0CFqdsstt9Dn5ORkv+2Veuz1d4oAK+08j6s//fRTt27dfIHw/umnn7L2/viIpU4fMEOQ88UXXzBbZGRkXNMuC7OJXrqeVNs9eCd080Amx+k/rJyT7S2r+6lYtEjvWtqfYC5h385Ho4c7PVYdtRQ6keoweIdhRKMOzXDTPF/ujhw50hf4piBPsLqNKcUY9ytNpogbfheDui2Y3frGRPnjybLAK5xjxB8nyeK0tDQanLSVFStk0PinMDF69GixApjidCppMoICLhVWr16dHe7cuZP9ICGxZs0aFhB37Nhx9uzZu+++m7X8OgB7hsKtvT/rcnYo4Nq/VOV27gcffOALxHo2Z9P+YcuWLSwQ00RboEABqp06dao/4DZsAnj88ce5WKJ27drp6en2EhA8Ts955ZVX2AzKoD3efffdx34FglukVatW33zzjT/wAx379+/3Z82+xMSJE/fu3csESnNzZGva112+fLl///6+QNrr5MmTbi7HgIljG6cTZhtPhBcu2deCipAidUjywLVr15I/k5v5Ar7tVwYfhXxFlYA0PvsDr2liiWC6oytXrhw9erRs2bJ02LVrVxomrIo2mRRLaZTRbsTnkixWDFUOhhUAIFuCic8Ef6rLuRhwW/6xEpZ2KVy4MJVQmOLbfopXW7duZY1Z8FeE5V9++YW9rYgWMLRcISH5A/zwww9st1+xYkW/MsC6dZ6V0HKFZYqrVatmfwyTEfOx1OkDZghyNmzYwLT95JNPXtMuC7OJ3rme/OKLL9R2D9IJFR7I5Dj9h5Vz1LccpH9KFy3Ou6ZVtLM/QV5CePYr6jzc6bGKqKXWiVOH/qAdhl/dH4U6NMNN8wkJCd27d2/Tpk2+ADNnzmS1ijGlGONqkynihl9mULcFs6JvTBQjTiwLvMI5RvxxkizWhVZdtHTjTxaAEHE6lTQZUbp0aSqsU6cOO6RJLiMjo2bNmuXLl2dxlli0aJHf5dVXivbscjRxjhs3jgJ048aN6bBgwYIffvih+lxa0LC3d1Fhamrqww8/zO+Calmzzp079w3AwnRaWtp/OxRg8uTJNPHQzGEvBEHi9Bx/4EmcwYMHV65cmemfmcBvswitd+3t/Vmzb7NmzZyFQm6OL0m3b9/OpK1cudLv4nIMmDi2cTphtvFEsRZUhBSpQ3bs2JEd3n///XR48803+5XBRyFfUSUgjc/EwoUL2XVplcxKHnjgAV/gbzY0TFgV/3pjjx49fC7JYsVQ5WBYAQCyxS0+0+a/tw3+rirnYsBt+cdqWdqFf+MtMTGRDgcNGsQOWUZg2rRpfmVYplq6BDtxyZIlvkAkpP/Xr19/22230Yf77rvPrwyw7NDZeVbCfgCGbsH+tCAn5mOp0wfMEOS8++67zBxC8oVjNtH7HevJbO0epBOqPdAv8x8B9S1n20/FosXvuGve3t6fIC8hJIujzsOdHquIWmqdOHXoD9phfjshCnVohpvm7aSkpLAnkPzKqK4Y42qTKeKGX2ZQtwWzom/2ZnFiWeAVzjHiR7JYyvz58322TS8IEadTOZMRW7ZsYVGvX79+dHjixInixYvTYf369YcNG/bggw+yWvYDhs41h7q9cLkffviBTZaDBw/O9lyKzu3bt2dfMGHQWp/K33jjDXZYrVq1WjZ69OjBe0UcPnyY2vC/UgItnJ5j58iRIy1atPAFHmS4cuUKt8jOnTuFlmz25Usle6GQm+vTpw873LdvH5O2YMECv8zlODBxbON0QnU88WetBUeMGMEOb7/9dp9tLegWUqQOyQ+ZB1auXNmfXfBxk6+usuOMzwx+Xf6aJvbqCbr9d955h1XxjDkNJZ9LslgxVDkYVgCAbMk2PgsIiwH18s+v8zPd6rD84osv+gJv0KKYSWcdOnSIDsePH8+i8d/+9je7BGeAZYfOlQwrYRMQ3cj27dt5FSfmY6nTB8wQ5Jw5c4Y9kun2XJ7ZRO93rCeztXuQTqj2QL/MfwTUt5xtPxWLFn7I79ov64/uJRhR5+FOj1VELbVOnDr0B+0wvL0/CnVohpvmS5UqRRp47bXXEhISfLY/eKjHlNsYV5tMHTecBnVbMKv7xokTywKvcI4RP5LFUi5cuFCsWLGhQ4eKFcAIp1PZ58WzZ88uXrz4pptuYlGP5ej53+W+/PJLOuSPrbEVPAu7fAmSbXthGqbQydZDLLmjOPfKlSvstxCvXr1KtbSd8GU9A/LRRx+xZkuXLs3qxa8/tnb8+HF+yGgWQCgEweD0nAkTJth/CItt7WiPRAbiFuE/FED85z//8busL6W5OdrLsW+k8l8tY5O90+XswMQxjNMJ1fHEn7VS7927N30+d+4c+84EWwsqQorUIaX7LkXwUchXVAm47Vt27drFrvv888/7A3KaNm1Kh9TVI0eOsKpx48ZR1TfffMO+dl1LlixWDFU7GFYAADXZxmcBIa4qln+sAQvmwaRdFGHZn7VjJ8qVK0dhk0pq1KjBgiTBnghWBFgmzbmSYSUDBgxgTyiXLFmSusFrObEdS50+YIZTTufOnZlFZs+ezQv37NnDsjZmE73fsZ7M1u5BOqHaA/0y/3GiuOVs+6lYtPgdd+13tPcHoQrnKYzo8nCnpymillonUoUE6TC8PSO6dGhGtpofM2YM0/a6dev8yqiuGONqkynihl9mULcFs6Jv/JARD5YFXuEcI35nsnjFihXUaNasWZvim/bt29OqixaOYkVssX37doosgg94ziaH5/HvfbBJi5EnTx7+8038Rz969epFUxr/wQS2gueJvEaNGqWlpVFkVLdnl8ufPz+F44YNGxYqVMgXuNyqVavU1zp48GCFChWGDh06Y8aMSZMmse/yTJw4kXWS/bBVqVKlxo4dO3369Pvvv5/mm6effprVcmbOnOnL+vUSoIXTc9iih3ZZHTt2ZF//99keB27Xrh0rIYuT1cjc9h+4CyZZTF5BTkVbL/b1oubNm7Nap8txOX6YOKZxOqE6nhDshddEhw4dKlasyFLJbC2oCClSh3Tbd7kFH4V8RZWAPT5z2Do1JSXFF3hNG62JaSCwZvPmzaMqWvuyQ1oK0+ypeGex332o2sGwAgCocYvP0rSL3xGIFMs/1kAr7eIWllkt+3leYuTIkf6sP3X7bIkwvzLA+h2dt5dcvHiRnVu6dOm9e/fyBozYjqVOHzDDKefo0aPM4r7A5Ev2rVq1qi/rfa9mE71ftp5U2z14J1R7oNN/nKhvWd1P9aLFedfS/mhdghNdHu70NHXUUuhEqpDgHcZOdOnQjGw1/+233xYtWpRKWrduzUrcxpR6jCtMpogbfheDui2Y3fpmP9cfH5YFXuEcI35nsnjWrFnMI0GcQLGM4khYX9Ds9DyejKAoWaRIkWrVqlH03LJly2/n+P3Dhw9nMbRkyZJz5sxh7dkK/ocffsjIyGCh2Zf186OK9vxyDJoJkpOT2ff+1Nf66quvbr75Zn5i3rx5e/bsSVdnZ2VmZg4aNIi9YN6XlWdcv349F8s4deoUzc2TJ08WykG2OD1nzJgx5C12i9x+++1nz55ltefPn7/33nvZ14h8gdfIrlixwu8y+0pzc3feeWfXrl3Z6TVr1uS/bCt1OQ5MHMM4nTDbeHLkyJEaNWqw2n79+rG397K1oCKkSB3Sbd/lFnwU8hVVAsINMtgjwzTWaIzwP/LRwpQ/f3Tu3DkK4xTPr7vuugkTJrAXsTVo0IDVCrfjNlTtYFgBANS4xWe3tItzMeC2/GO1WmkXt7DMau+77z5Wzh4Eo90+O7T/+LYiwPplnbeXWJbVpEkTX+AdmvYvYPljPZY6fcAMqZyTJ08OHDiwcOHCzCJEy5Yt9+zZ4zed6P2y9aTa7sE7odoDnf4jRXHL6n6qFy3Ou5b2R+sSnOjycKenqaOWQidShQTvMHaiS4dmBKP50aNHMz2/++67fvcxpR7jCpMp4obfxaBuC2a3vtnP9ceHZYFXOMeI35ksZl/CIp9+L77ZuHEjKSHmnyxes2YN29KH9XU2m2SeFwwUbT/55JPgn33WbW9Hce65c+c+DUBrcbEu8NISWpcfOnTo3//+t1iXRXp6eu3atcVSkB1unkMTJy009+/fL7XIxYsXySLUgD6Ide7YZ2haBJC52TeMggQmjlXcnFANOQ+tCN1+U0IdUoLHLfgo5CuqgofO3bdv32efffbzzz/zwtOnT1+5coV9phHKntHr378/b+Ak26GKYQUAUGAWnwUUyz8D3MJy8EgDbIjEcCz1xAf8Sjk//fQTmYPMKsyb3k70Xtk9dA/0u9+y37t+KjC4RBR5uMLTFBjoRJco0qEZZpr3u48p9Rh3M5k6brjhtmB265udmLcs8ArpGBGTxdJGILbp06dP4cKFvVooO4FTzZ0712d71T0Ikpz0HOmfc4MHJo5VctIJo5pZs2ZVqFAhIyOjf//+5cqVI6UVKVKEFspiOx0wrAAAChCfgySGY6lXPuCVHJArRJGHR6ynRZEOzYhYzYebmLcs8ArpGEGyGPhXr15NRpf+jLInwKkyMzMTEhJGjx4tVgAlOek5aWlpN9xwg/0LoVrAxLFKTjphVLNu3brGjRsXLVo0T5481113XUZGRoiZYj+GFQBACeJzkMRwLPXKB7ySA3KFKPLwiPW0KNKhGRGr+XAT85YFXiEdI0gWg7AbPdzyo4Ju3bpVrFgxrO+Gjj2iy3Ng4pgkupww9sCwAgC4gfgcPLEaS73yAa/kgNwiWjw8kj0tWnRoRiRrPtzEtmWBV0jHCJLFIOxGD7f8qGD+/PmkhM2bN4sVwJ3o8hyYOCaJLieMPTCsAABuID4HT6zGUq98wCs5ILeIFg+PZE+LFh2aEcmaDzexbVngFdIxgmQxCLvRwy0/Krhw4UKxYsWGDh0qVgB3ostzYOKYJLqcMPbAsAIAuIH4HDyxGku98gGv5IDcIlo8PJI9LVp0aEYkaz7cxLZlgVdIxwiSxSDsRl+xYgXJnzVr1qb4pn379iVLlly5cqVYEUNs377dw19KjDrPiQcTRz5x7oSxB4YVADED4nMuEiGx1Fsf2OTRFga+FAOEycO99dgI97Qw6dCMuNJ8uIkoywKv8HaMbJLNp0gWg7AbneKyD8QNhQoVmjlzpifvRYLnADPghAAAEJkgPgMPfcCrLQx8CSjw0GPhaVpA8wCo8XCMSOdTJItB2I2+cuVKkj979uz34puNGzeSEmL7b3pr1qzp27cvmZvClugH+kSd58SDiSOfOHfC2APDCoCYAfE5F4mQWOqtD2zyaAsDX4oBwuTh3npshHtamHRoRlxpPtxElGWBV3g7RjbJ5lMki0HYjR5u+SDS6NOnT+HChUP/WgQ8BxgDJwQAgMgE8RlEmg94JQfEKpHmsfEDNA+AmrCOESSLQdiNHm75INJYvXo1WXz79u1ihSbwHGAMnBAAACITxGcQaT7glRwQq0Sax8YP0DwAasI6RpAsBmE3erjlg0jDK4t7JQfEIV45j1dyAAAAMLyKq17JATmPV7aLNDkgVvHKQ7ySEz94pTGv5AAQaXjl21I5SBaDsBs93PJBpOGVxb2SA+IQr5zHKzkAAAAYXsVVr+SAnMcr20WaHBCreOUhXsmJH7zSmFdyAIg0vPJtqRwki0HYjR5u+SDS8MriXskBcYhXzuOVHAAAAAyv4qpXckDO45XtIk0OiFW88hCv5MQPXmnMKzkARBpe+bZUDpLFIOxGD7d8EGl4ZXGv5IA4xCvn8UoOAAAAhldx1Ss5IOfxynaRJgfEKl55iFdy4gevNOaVHAAiDa98WyoHyWIQdqOHWz6INLyyuFdyQBzilfN4JQcAAADDq7jqlRyQ83hlu0iTA2IVrzzEKznxg1ca80oOAJGGV74tlYNkMQi70cMtH0QaXlncKzkgDvHKebySAwAAgOFVXPVKDsh5vLJdpMkBsYpXHuKVnPjBK415JQeASMMr35bKQbIYhN3o4ZYPIg2vLO6VHBCHeOU8XskBAADA8CqueiUH5Dxe2S7S5IBYxSsP8UpO/OCVxrySA0Ck4ZVvS+UgWQzCbvRwyweRhlcW90oOiEO8ch6v5AAAAGB4FVe9kgNyHq9sF2lyQKzilYd4JSd+8EpjXskBINLwyrelcpAsBmE3erjlg0jDK4t7JQfEIV45j1dyAAAAMLyKq17JATmPV7aLNDkgVvHKQ7ySEz94pTGv5AAQaXjl21I5YUwWW5b1zDPPzJgxYzpwgZRDKiJFibrLWTw0uhQD+aSTZ599Fs6T65AJyBC6LmpgcSkGcqLOc8w0HArvv//+tGnTxH5ENtRh6rZ4J0oMnEeKgZyoc8JY5amnnsLgiiIMhnmIwF6hYzbKDOKqFAM52Jt4jtlexsB2UnJRDgJI9GIw3Rh4iBQDOdRV8QaimejSPMZ4thiMphCJbbsY6NPAt6VI5YQxWUxLhxMnTlhACamIFCXqLmfx0OhSDOTPnDkTzhMhkCHIHKKFlBhYXIqBnGj0HAMNG/OPf/xj0aJFYg+iAer222+/Ld6POwbOI8VAzqxZs6LOCWMVMgSZQ7RQeKDBtXDhQrEHQAdSoNYwDwXYyytOnjypO8oM4qoUAznYm4QDg72Mge2k5JYcBJBoR3e60fUQN3TlvPPOO4sXLxZ7H83Q7SxYsEC8T3d0NeaGrhzSfJTumHIeUpSWTUMhHmJvREWnMCaLn3zySfHWgQxSlKi7nMVDo0sxkD9jxgxRTSD3IHOIFlJiYHEpBnKmT58u9j4aoG6LdxIe/vd//1e8dvSgFSoNnEeKgRyEr4hCN3wZ89RTT4nXBvpoDfNQgL08hJQp6leJQVyVYiAHe5MwoTtyDWwnJbfkIIDEAFpOq+shbujKefrpp8V+Rz/Tpk0T79MdXY25oSsnqndMOY/WaAqFOIm9WvrU9W03pHKQLM59tLwhHHhodCkG8qM05Rer6KYyDSwuxUBOlHqOroaNieopVisfYeA8UgzkIFkcUSBZHF1oDfNQwDj1EN1RZhBXpRjIwd4kTOjuZQxsJyW35CDgxwBa042uh7ihKycmU5Z0U+J9uqOrMTd05cSk5sOHlk1DIU5ib+REJySLcx/dBZbneGh0KQbyozTlF6vopjINLC7FQE6Ueo6uho2J6ik2ciZONUhCRRS6aSxjonpwRQ5awzwUME49RHeUGcRVKQZysDcJE7p7GQPbScktOQj4MYDWdKPrIW7oyonJlKVWYlFXY27oyolJzYcPLZuGQpzE3siJTrmWLD5//vy69eseGfVoStvUuvXrlitXrm6Dem3atRk7buzGjRupVjwhdtFdYHmOh0aXYiBfnfIj99iwccPwMSNSufPUr5vaNm3U2FHx5jw5g24q08DiUgzkRKnn6GrYGPUUSxogPYwaN5p0YtNPKmmM9JaL+mFEzsSpRp2EYkoeMWbktUpOGzl2ZO46Yayim8YyJpjBRVYW7E6eALvb0RrmoWA2TmEvKbqjzCCuSjGQk+3eZK1jb5LWNh73Jrro7mUMbCclt+Qg4McAWtONroe4oStHnbJknjZm3Ji0Xz2tHl+3Dxs9bH0ErNvd0Eos6mrMDV05wWie9o/OHVMkaz58aNk0FIKLvaMCI8IeeyNiJxs8kROdcidZ/I/l77RIadm0VbMHxw15duGcv/7z9SX7ltP/9JlKklu3SGuTtmbNGvG0GEV3geU5HhpdioF8Rcpv5aqVt6a2cnOeZq2at05LWb1mtXgaCAHdVKaBxaUYyAnFc1LSUnIr7Ohq2BjFFEv3ThogPUj1Q3oj7ZEOxdNykMiZONUoklCrVq9qldq6mbsTtk5rTW3E00AI6KaxjFEMLrIpWdZtcJE/kFfA7gytYR4KQYxTN3s1h70EdEeZQVyVYiAn+73JrfL4HG97E1109zIGtpOSW3IQ8GMArelG10Pc0JWjSFlSOEptk9q8VbLU02jd3jL11mUrl4unRQBaiUVdjbmhK0etedoxNXcZ42zHtCJXd0w5j5ZNQ0ERe1evXt1auZNtldoqWmJv5ESnnE4WZ2ZmDh3++wZJDSa8MJns5/aPaps0bTJ27FhqL4qIOXQXWJ7jodGlGMiXpvzIGYaPGt4gqWG2ztMwqdGoMaPjwXlyBt1UpoHFpRjIcfOcYaOGBeM5jZo2Gj02FzxHV8PGSKdYul+6a7r3bPVDOhw2anjO64cROROnGmkSipQ2YvTIhkE4IYWvkWNG5ZaSYw/dNJYxboOLrEk2DcLuDclDYHetYR4KbuN0ZLDjtOFI2CsL3VFmEFelGMgJdW/SLF72Jrro7mUMbCclt+Qg4McAWtONroe4oStHmrIkz6FA1Lhp42w9jcLawyMfjjRP00os6mrMDV05bprX2TENizTNhw8tm4aCW+wdNXZ0MLGX7DI893aywRM50SlHk8XfZ37ftfft7e5o/9b2BU77Cf+oTefut/Xr3y/yzRkiugssz/HQ6FIM5DtTfuQGPe/sFbzzdOjW8c6+fWLeeXIG3VSmgcWlGMhx8ZyeWp7TJ8c9R1fDxjinWLpTul+66yD1Q5okfeawfhiRM3GqcSahSF29+/Rud0eHIJXc/o4OGX0yckXJsYduGssY6eAiO7YP2u7kIeQncW53rWEeCtJxSvYKfpy2wzjNQneUGcRVKQZyJHuT77/v2ktnb9IjLvYmuujuZQxsJyW35CDgxwBa042uh7ihK8eZsiSf6duvb8funYL2tPbdMrpHlKdpJRZ1NeaGrhyp5vv009sx9cilHVPOo2XTUJDG3jv79mmvYZcOvSI+9kZOdMrRZPGQ4UNp2Czas9Rus8V7lz3258d73NerY0bnfg8NfGbhbF5FLbv06Dpu3DhBToyhu8DyHA+NLsVAvjPlN3zUcBrbWs5D0XzM2DGCHGCAbirTwOJSDOQ4PWfYr56jF3Y6duuUw56jq2FjnFMs3WmHbp209EP6JK0KcnKAyJk41TiTUCNHj9QNX+27dRg1ZpQgBxigm8Yyxjm4yIJkRy27k5+Qtwhy4gqtYR4KznH6q710x+kdGKe/ojvKDOKqFAM5zr3J74YN0V0kdOkZ+3sTXXT3Mga2k5JbchDwYwCt6UbXQ9zQleNMWY4dO7ZT986antb+oREPC3JyEa3Eoq7G3NCV49Q87Zg6muyYhglyYhItm4aCM/aOHju6Q7eOmnbpMHz0CEFORBE50SnnksULly2sn9Tgb9uuSfm/tvmtWg1r+2wUSChgb0DtmzZrKn1H2Hfffbd69epXXnllyZIlBw8eFKtzm08++eSjjz4SS2XoLrA8x0OjSzGQL6T8Vq1e1SCpoYHzNG7aWOo8OQzdzksvvSSW5gj2Sxt3QzeVaWBxKQZyBM9ZuWqlqec0ETyHRvR7AbZu3fqvf/3L+Y78YBq4xQRdDRsjTLF0jzRGDPRDWnW+v1itAVZ7+PBhe+GxY8eocPfu3bxEoaXImTjVCEkomqcaJjUyUHKjpo2k4evs2bPr1q2bO3fu/Pnzd+zYIVYHzaRJk1599VWx1Ajj2GIG97TNmzfv27fv+++/t9cKndFNYxnjHFxkQQO7k7eQz9hFWdcOruPHjwu1EY6WvbSGeSgI45TsZTZO6SznOLXb6+jRo0KtATk8xCxNq+mOMoO4KsVAjrA3eXup6d6kubg38WSQciGcDz/8UGwUBkJ3MN29jIHtpOSWnLAGfEaE73O1iJB7CWW60fUQN3TlCClL8rQmzZIMPK1BUoOlK5fZRVkeRa1scYYXrcSirsbc0JXj1DztDY00L98xuW12ohQtm4aCLPaa7GQbJjVctUp8f7HWiHA6todETnTKoWTx+fPnk1NaOF8j0qR1EjNh1Vo3t+/VsUb9moIt6d+Ul6e1bdtWyDvQJrl8+fLFihVr2rRp3bp1CxQo0KNHD2d2JhcZMGBA69atxVIZugssz/HQ6FIM5NtTfmTW1mmtzZyHzkpLb5PrjtG7d++HH/71L7oPPvjg5MmTxepw0rVr18GDB7PPvBuWZk90U5kGFpdiIEfwnFamnvP4C5PbXOs5NKLz589funTpxMTEvHnzlihR4p577vn888+1GrjFBF0NG2OfYunu6B4fN9IPaZV0K4wstQaolmR27tzZfsrdd99Nhe3ateMlCi1FzsSpxp6EIhWltEk1c0I6K7VNqqDkt99++8YbbyxSpEiTJk0aN25cuHBhmgE3bNhgbxMkaWlpw4d784S4PbbkANzTiHz58l1//fVvvvkmr7UHPUs/jWWMMLhSQ7B7isPu/JaLFy9Op7dp00b4u0sko2UvrWEeCsI4DcVeznHKb5nCIJ3eokWLAwcO2Bvoku0Q05rTg0HLarqjzCCuSjGQY9+bnDt/znhvMvXl6cLexGCQOq1GQmj2LGKDQr29gSc4r5utg2WL7l7GwHZScktOWAO+5d0+12nrnMere2GEckehTDe6HuKGrhx7ypKUlp6ePvGFJ8w8rWXqrW5TVfBRywBB7ZZmYlFXY27oyhE07/mOyW2zE6Vo2TQUhNiblp5mHHtbt0lx2iX4ERH6vKkgcqJTDiWLl65e2rRVM8FI/zt/JjNk69tSF+9dxgrHzXpMaEb/WqelbNy4kUtbtWoVrVwfeuihb775hpUcPHjwzjvvFB58yF2CjwK6CyzP8dDoUgzk21N+ZPpmrZobO0+LlJZ258ldOnXq9Pvf/14sDSfOGZqh1RPdVKaBxaUYyLF7zoaNG0LxnJbXeo59RH/77bfvvPNOnTp1KlWqdOzYMYMGAroaNsY+xdLd0T0a64d0Sxq23UQ2GqDa2rVrJyQk8PTxmTNnaPNwyy23xHCymJTcvHWysZKTW7dwzn2PPPIIqY6V0CRI67Pnn3+etwkeD5PFOYzdSUgD99xzT6FChbhOQkxjGSMMLrKdsd3JZ4Rpy37LO3bsKFeuHG227Q0iGS17aQ3zUBDGaXJI41Rlrz179lAYpDnX3sBztOb0YNCymu4oM4irUgzk2Pcm74S2N0m5dm9iMEidVlPMgB7ivG7o6O5lDGwnJbfkhDXge7jPDYettfDwXhih3FEo042uh7ihK8eesiQ/uTW1lbGnUbhbs34tl2YZRS0DnFtRrcSirsbc0JUjaD6UHRNpXrFjig20bBoKQuxtEULspZ2sYvEWvhERDJETnXIoWTx0xO8HjxsiWKjf//z6oBnxwqpXnPaz/xv5+Kg//OEPXFrTpk0bNGjg9jfJtWvXkqWTkpKSk5NpU/3VV1+x8gkTJvz1r3999tlnmzVr1rJlywULFpCE6dOnU8s2bdqsXPnbFwTcJDAhf/nLX0gIVd11112KlnZvY2fRYpp6Ti3/7//+jzez9BdYnuOh0aUYyLen/EaOGRmK8wwZ//vx48dzadu3b6c1CvkPucGgQYPsfy9auHAhLUHq169PceH999/n5YsXL77tttvq1q2bmpo6c+ZMVjh8+HById6GhvScOXPYZ8FJqGTq1KlkdDq3fPny1atX7xXg0KFDrL3bdaVI+0+eTJdo0qQJOfZLL730zDPP8M7YZ2jWDfog7YmiG7qpTAOLSzGQY/ec4WNGhOI5Q//w0Pg//OY5znmdlF+kSJERI0YYN+DoatgY+xRLd0f3aKwf0u2IMde8a895g3YNUG27du3S0tL41EC+Sp7cp0+fGE4Wjxk3JhQnHDx+6Ljxv70Zk+YaN+UwnMFHMUmxZLF0YlKcJY2HPLYw6DP1s169ev369duzZw8rZFMwhabmzZu3atVKmAfd4o804glOQntRUiZ/mUmIaSxj7IOLrEa2M7f7uCHkOVya5bjlRx999IYbbmCf3VQnOINUkwxdeyncQ3oVLXtpDfNQsI/TsePGhjROxw0hCVya5bhlGmhlypThh24mO3fu3OTJkxs3buycyu1DzKlk55zuDAWWi6GlAi3HLaitpjvKDOKqFAM59r3JkOEh7U1GPT7avjdxG6Ru48VpNacQxtGjR2mi5F+YPXXqFDVbtGgRbyD1KLeth/S6ocdw3b2Mge2k5JacsAZ8xT5XsftwDmSprS0X+1o6O2WpyzEJQuRR3IuVXU+czua8I+cVFWJDmW50PcQNXTn2lCUFnIcfezQUT3tk1KNcmuUIONlGLcvdNAypY8RAspg0H+KOifakXJrlSBMFM+4URlEsHiwXo1hKU7qd4gwyvErLpqFwbewd/7vxvw/FLiPHXvOzE24jQop93nSzDllzyJAhv51jWc8///xjjz2mOIUROdEph5LFLdNufXbBHMFCrTun0LUSyyQ6jSf8+7/FL7Vv356JOnbsWJ48eeyrfIFp06aR8ZYuXfr3v/+9RYsWt956KyunjfGNN95IVnn77bcfeuih/Pnz06Ryzz330OEDDzxQpEiRL774Qi2BC6Go99prr9FCTdHS7m10Frla9+7dlyxZQoO5QIECNLHxlroLLM/x0OhSDOTbU36p6amhOA+d27ZdWybq22+/ve6668jcFHnJfGPHjuU7HxrtRYsWJessX758/PjxhQsX3rZtG5U/99xzZK9Ro0YtW7aMQip/EI+WIFOmTGGfCVqy3H333eyz4CRW1jT53nvvNWrUiILvGwFouW+5X1eKW//p9GLFitESioI7eR05G++MfYbmn509UXdDN5VpYHEpBnLsnpPinedYjvmDQXanqZR9NmvA0NWwMfYplu4uRP2Qhm03Ib9BroEBgWTxK6+8UrduXVZFjak/sZ0sTmvbJkQlt2mbzkQdPXqUzrKv/5w4g49iklJMTG5nucVDe5whM1EAIZcmsV26dClTpsyXX35pBS5XoUKF3r17z58/f+LEiXnz5qVow05xiz9uEc/uJEeOHKGVa+XKlc+ePctKQkxjGWMfXGS1EO1OnsOlWY5xQWv0m2++2XJXnXWtM5AdpZq0jOzl5h6e2EtrmIeCfZy28WCcquxFo6xGjRrss8JkdFiyZEka44sXL6ZFr3QqlyrZOac7Q4GboaUCLU2r6Y4yg7gqxUCOl3uTJb/tTSyH0fkgdRsvTqsxIbRp/97GuXPnqPxPf/oT+QMZwgp89ZVO/O6775gcN49yi/DS64YYwy39vYyB7aTklpzwBXz1Ptdt9yEdyFJbu9nXCnqn7OZyXAKPPOp7UfdE6mzOOwo+1lmOwKU13eh6iBu6cuwpSwo4IXpa6zbXLLB1o5blbhrL3TEEtVuaiUVdjbmhK8euedqnhKh5xY4pyHGnMIpi8eBmFHZdqSndTpEGmawu6Nk0FOyxN71dqLE3NT2NS7PcR4QUu2O7Wefjjz+mznCd04ROtmbJCrdTGJETnXIoWVy7Xp2/vvuGYKHGrZrQtSpVr+w0nvDvtU1/a9iwIRO1ZcsWOovGDxeugO2ud+3aZQWGRFJSEis/f/48mYoWZOwwMzOzVKlS8+bN4ydy7BKsgJDatWtL/0AqtBSiQJUqVdiCjxg2bFjNmjXZZ0t/geU5HhpdioF8e8qvbv26oTgPnVu/wX+zdXv27KGznD+tQMvxsmXL2meFgQMHZmRk0L6IHIP9/UfAbblmyZyER5NO1355yu26/FBA2n/qZGJi4jPPPMMOT548WaJECecOU/hs70m23dBNZRpYXIqBHLvn3OKd51iO+YMxcuTI0qVLs89mDRi6GjbGPsXS3YWoH9Kw7SbkN8g1MCCQLD5z5kzx4sU/+OCD/fv3FyxYkD0wFcPJ4rr164Wo5Hr16zFRbO6jVQUXTvMg2y+tW7eOlTiDjx3ndKaYmDj8LEU85LGFggmFIx4b6bBixYq0oLQCl6M9Hu8bGZ2f4hZ/pBHPCjiJz0a5cuU2b97Ma0NMYxljH1z1QrZ73Sy7M+iW69evv3bt2lWrVj3++OO0lxg3bpxCdda1zuCmSQN7Cdidyu0qWvbSGuahYB+noduLj1MG3TINLlLspEmTevTokZCQ8Prrr1tKb6dtWLFixZ577jlWTqGyTJkyzqncTcnC6kIIBQpDuwnUspruKDOIq1IM5Hi4N3l901t8b2K5DFJeyxCCsGA1y6F2gvkABeo2AWbNmkVz6N69e1l7hUcpIrzzuqHEcIbuXsbAdlJyS074Ar56n+u2+3AbyM59h5t9reB2ygqXsxyRR3Ev2fbEzdmMY53lCFxa042uh7ihK8eu6gYNGoToabfUu4VLs4yilptpFI4RA8nisO6Yghl37JBjN4pi8aAwiuViSsUpbkGGoWXTULgm9oZsl7oOu2Q7IjhOx2YIQ6Z58+b81cbvvPNOgQIF+POpHOEUK5KiUw4li2+qeNPCj98RLNQ0tRld68YqFZzGE/7RuZUqVWKitm3bRmfZf2dDgAwwcuTIlJSUunXr1qlTJ0+ePIsXL7YCQ8I+u5Dl7K9rpMbTpk1jn90kWAEhDzzwAD9L0VKIAvfccw8/i3b71JK/+k13geU5HhpdioF8e8rvpooVQ3QeWigwURQBb7nlFvIlWjQvW7aMPyOzfft2knb//fePHz+eggKtKtq2bUs2Zc4mfdTXbblmOZzEck8Wu133tzOvRdr/3bt3kxD7b6qSEOcOU/hs70m23dBNZRpYXIqBnGs9J9Swwz3HcklikiGuv/569tmsAUNXw8bYp9iKIY+sm2z6sVxukGtgQCBZbAV+1G7o0KHkaXfccQcdxnayOHQlcydk4YhPMVbWOo/2RZ2yXofqDD6KSUoxMUnPUsRDIZNFIYVX3XXXXexXDYUpmPrJHEARf6QRzwo4SdOmTT8JQHtREkVL23/961+sNsQ0ljHeDi578LECt5yQkEBbCNJGy5Yt6VqkHIXqrGudwU2TBvayXNzDcr+Klr20hnkohGmcMuiWS5cuTbdGwY12cV26dGHaUJiMNgk+23seiA4dOjincjclOxMo9lCgMLSbQC2r6Y4yg7gqxUCOh3uTRbuX8r2J5TJILffxYjmsxoQkJSXtscF3lUeOHLnhhhvo9FdffZW3V3iUIsI7rxtKDGfo7mUMbCclt+SEL+Cr97luuw+3gSzYWmFfy2Fi6U5Z4XKWI/Io7kWrJ3ZnM451liNwaU03uh7ihq4ce9oudE+joMelWUZRy800Csdw5tS0Eou6GnNDV064NW9PE2U77ix3oygWDwqjWI7rMlMqTnELMgwtm4ZC+GKv5T4ipNgd2806xOzZs2kjzOTceeeddFa2p1iRFJ1yKFlcR/bX+/a9OtK1ChYutGjPUqf97P/efO/v/K/3p0+fzpcv38SJE7lwgSZNmnTs2PGdd96hKWrnzp0FChR46623rMCQsI+9Fi1ajLe9ytY++7pJsBxCFC2FKDB06FB+1vr16+nG+c9e6S6wPMdDo0sxkJ/tk8XBO89fr30+lPyHBu3tt99evHjxKlWq7Nu3jwrfffddkkaxb5KNmTNnsp7vsb3uiiMs13r27GlPFgs/G+WWLHa77m9nOnD2f+vWrSTk008/5W0o1jt3mMJne0+y7YZuKtPA4lIM5ITPc6RJzHbt2iUnJ7PPZg0Yuho2xj7FSv9OrqUf599jnTfINTAgK1m8du3aMmXK0PQ8f/58K9aTxdIHjrSUzJ9YPHXqFM199omV0a1bN3uyWAg+iklKMTFJz1LEQx5bWDhicZXxu9/9jlZClqNv1J4tmNTxxxnxLIeTnD9/vnTp0vyP/yGmsYy55mEH7+zOkI4LteoEhUs1aWAvy8U9WJX0Klr20hrmoRCmccqw3/K//vUvinijR4+2lCZjWZVPPvmEC+nSpYt0Kpcq2ZlAsZtPYWjLRaCW1XRHmUFclWIgx8O9yd82vy08WewcpJZyvDiTtm5CrKxkcd68ee2vjlV4lCLCO68bSgxn6O5lDGwnJbfkhC/gq/e5it2HdCALtlbY13KYWLpTVric5ZCguBetntidLZRYF8p0o+shbujKyfbJYi1Pcz5ZLA04iqjlZhqFYwhqtzQTi7oac0NXTrZPFmtpXrFjCmbcWe5GUSweFEaxHNdlplSfIg0yDC2bhoLXO1nXxVu22B3bzTrEiRMnChUqtHDhwpMnTxYuXJiXK06xIik65VCy+Na0Vs5XigyZ8D++AI+/9ITTfvZ/L/1jrv29YDRP3HTTTd9++y0vsQIP4VuB31MigR9//DErZC8KYaoPcigqJFjXClG3FKIAwT4Tc+bMKVGiBD/UXWB5jodGl2Ig357yS0tPC8V56Nx27X9LRXEo3tWsWZOiIX3+8ssvaf3t/NP38ePHqfy1114Tyq3A61bZ3o/RuHHjYJLF9MH+mnO36wYD7z+Fnjx58ixZsoRXVa9eXbrDFD7znmTbDd1UpoHFpRjIsXtOqqee45w/Nm/eTItgfkWDBhxdDRtjn2Lp7kLUj/pNT9a1GhiQlSwmqlWrdt1117G/ssZ2slj6LlQtJae3++87i63AwwJ16tQR/pivSBarJym3icntLEU85LHl1KlTFI7+/ve/86pWrVqxp9ukq1IriPjDsEdswUnOnTtXqlQpLjzENJYx9sElfY2alt3V78BlqFXnnIkYdk0a2MvNPXhLhrG9tIZ5KNjHaej2so9Ty3HLzz77LG0VDh06pDDZ119/nT9//jfeeIMdZmZm0kJXOpVz7EoWVheC+RSGtmNsNd1RZhBXpRjI8XBv8vI//qJ4ZzFDPV4Eq1kuQqys11C0bduWVp7lypXjjxsrPMotwluy64YSwxm6exkD20nJLTlhDfiKfa5i98FRRAaFfS2HiaU7ZYXLWQ4Jlvu9aPXE7myhxLpQphtdD3FDV449ZUkBZ9bC50PxtJT0/+bNGdKAo45abqZROIZz/tJKLOpqzA1dOXbNe7FjSrUpQEwTZTvuFEZRLB4URrEc12WmVJ/CsQcZhpZNQ8Eee6W/vqNll7S22exkFXDHVliH0bt37+7duz/33HNly5Zlm7hsT4mc6JRDyeKHRz7i/MXhV997s0DBBLpcuUrln134q6X/vOKllh1aOW05dtI4+y8Ok0JpxdOxY8edO3dagafily5d2qBBA/pw5syZAgUKzJo1ywq8vJXWVTRnaCWLFRKsa4WoWwpRIF++fKzq008/rVq1Kn93iaW/wPIcD40uxUC+PeUn/Zny4J3nocce4c5z4MCBf/zjH+wNbhQNyRCTJ09mVf369atSpQr/hjW51rJly6zA9wWo2YcffmgFPG3t2rWswSOPPFK9evVjx46dP3+eBj/ZN5hk8dChQ5OTk48cOUJBlr0kyO26Utz636NHj6SkpOPHj1uB4EJRXrrDtH8WeqLuhm4q08DiUgzk2D1n9LgxoXjOw398VPihc/blUIo/69at++Mf/1i8eHEa43wFHEyDJk2a7LLBX/ykq2Fj7FOs9FeVg9cP6Xb0tb/frdbAAFuy+GwA9tmZLHbTUuRMnGrsSSjpD/UGr+Shf/gf+zxFA7NYsWIdOnRgQ5VGLqma/dgLayAEH/Uk5TYxKc5yi4f22JKRkUHzKfuJ5Llz59K57777Lrucc1XKPrvFH7eIxz2N2Lx587333ktBT9oZSz+NZYx9cJHVyHbGdiefGWezu+W+fnVTnXWtwt00aenbS+EeblfRspfWMA8F+zglew0JYZzSufZxajns9d1331WoUIElOBQmI82Q0jZs2EDjkeboIkWKOKdyNyULc7pzHeJmaDeBWlbTHWUGcVWKgRz73uShkQ+HskgYN2m8sEhwDlLFeLEcVrNkMyDbTLIfuPv8888zMzNbtWrVvn17/qJJN49yi/CW7LohxnBLfy9jYDspuSUnrAFfsc912324DWSnrd3sazlM7LZTdnM5yyHBUt5L8D2xO5txrLMcgUtrutH1EDd05dhTlhRwhk8YaexpFO5GjBnBpVlGUUthGjfHENRuaSYWdTXmhq4cQfOP/HFYKJofPe63v/FYjjRRtuNObRTF4sHNKJbjutyUbqe4BRmGlk1DQdjJ/s8fHg7BLkPHjvvvC80Z0hHhBndstXWIJUuWFCxYsH79+vxbEdmeEjnRKYeSxWvWr2naqpnTSPeOvt+XRb78+ej/AgkFnM1S01I3btzIpRG0WSUXp5VroUKFaKakJRT316effjohIYFKihYtSn2gAaOVLLbcJVgOIYqWQhSgQduwYcMyZcpQn1NSUsgtuBDdBZbneGh0KQby7Sk/Mn1y62SnVwTpPLemtOLOQ4Hv+uuvJ5PRto0G7e23387fHP31118PGjQof/78pUqVIjvS/7Nnz7YCf6Pu2bMnDWCyHZ3I33tFyxTyGWpPpu/WrZv9zQ/OhQuPJvv27SPHK1y4sC/rLeZu15Xi1v9Dhw5RAKKgk5iYSFcP5jUUQk/U3dBNZRpYXIqBHMFzmrcy95xWqb95jhUY0f89JV8+cgYaxRTi7W8yCr4BhydJdTVsjH2Kpbuje3TeeJD6ad46WQjLag0MsCWL7TiTxfzqDF4bOROnGnsSilTUonULp/aCVHLLlJbOuS89PZ3mEYoANOQpGlAc4Es6Z/BRTFKKicntLLd4aI8tn3/+Oc19JLBkyZLsF8lZuduq1HIPg24Rz+4kxYsXT0pK+tvf/sYlh5jGMkYYXGQ7p0GDtDv5jHNwSdevbqqzrlW4myYtI3u5uYfbVbTspTXMQ0Ecp6HYyzFOnfaiYEg6OXjwoMJkp0+f7t+/P2mVPcNLCnzkkUdYFdeSm5KFOd0ZCtwM7SZQy2q6o8wgrkoxkGPfm6xet9rDvYnT6Ay38WI5rGbJZkBqv3btWor2fIdPXkQR+IknnmCHbh6liPDO64YYwy39vYyB7aTklpywBnzLfZ/rtvtwG8hOW7vZ13KY2G2n7OZylkMCw+1egu+J3dmMY53lCFxa042uh7ihK8eesiQ/aZ2a4nShID2tWavmGzZu4NIso6ilMI2bYwhqtzQTi7oac0NXjqB5z3dMXPNBjjuFURSLBzejWI7rclO6neIWZBhaNg0FIfbemnKrU+FB2iXZEXvdRoQUu2MrrGMFHvcuX748dWPLli28UH1K5ESnHEoWnz9//ta0VhNemOy009AJDyWWLcUtWq1udaHBM3+d2bZtW/4ndDvHjx8nx/3ss8+E8hMnTmzfvt2ekNUleAnBtOSjcffu3TTJCbW6CyzP8dDoUgzk26f2X/9u3CbNzHkmvzglvW264Dy0zia3+fLLL+2FjFOnTlHVgQMHaFTby48dO0bl7M/UHBJL1rS/LNgYt+tKkfafOvPRRx/t37/fCmTfnN9KCwa3buimMg0sLsVAjuA5qW1SzTzniZeedAs74UBXw8bYp1i6O7rHyS89aaAf0irpNsf0w4iciVONPQlFKmqT3uZxIyec+MIT6eli+GKweYe2ScJXO6VkO0lJJybFWdJ4KMDClH0dmS1u8Uca8YJHN41ljDC4yHZkQQO7k7eQz0jt7oab6gQUmtS1l8I9FFcJBq1hHgrOcWpmLzpL115WECaj8sqVK7OnTpwYK9nN0MYCGbqjzCCuSjGQ49Xe5Nm/zg5+kaAYL17h9Cj11iNb3FzFDd29jIHtpOSWnJwJ+NJ9rmL3EfxA1rWvE6fLqZHei+VFT6QEI1ZrutH1EDd05dhTlmzdPu2Vpww8jQJd6zYpbp7mxDhqBeMYWolFXY25oSvHqfknXp5mpnmvdkzBGEW6eAjGKAJup7gFGS2bhoIYe9umT3pxipld0tLTQrFL+/bt7dn2YKwjoDglcqJTDiWLieWrljdIavi3bQuc5ly8d9nzy1586u/PvrxunlD19oeLmjdvvmbNGruoqMP5Z087ugssz/HQ6FIM5NtTfgQ5QKOmjXWdh9onNUuKducxwDhZ7IZuKtPA4lIM5HjnOU1z0nN0NWyMfYq1AvqhOzXQD2k1J/XDiJyJU409CWUFlNy4aRMDJTeJy/DlObppLGOcg4ssaGB38pZ4trvWMA8F5zht0sxsnHpmrw8++OD555+nncM///lPmsfLlClDGwmxUUSiO8oM4qoUAznC3mTZSrO9yeLI35uotx6eo7uXMbCdlNySg4AfA2hNN7oe4oauHHvK0gp4WrPmzd7aru1pDZMarVq9yi4qF9FKLOpqzA1dOU7Nm+6YGoV7jEfC4kHLpqHgjL1JhrHXfCd75swZOrd06dJ/+ctfxDqPiJzolHPJYmL4qOHt7uiQ7U8T8n+L9yzr0bsn//Hl6KVHjx4TJkwQS7PQXWB5jodGl2IgX0j5EWPGju3YvVPwzkMtu/TsGqXOc/jw4W4y1I/ycQYPHmx/KXbo6KYyDSwuxUCOzHPGdOim5zlde96ew56jq2FjhCmWoDvt2rOrln5In6RVQU4OEDkTpxohCUWMHTu2U/fOWkru3OM24UVawAzdNJYxzsFFFiQ7atmd/IS8RZATV2gN81CQjtPO3fXsRe09tNeOHTvatm1bpUqVGjVq9OrVa8+ePWKLSEV3lBnEVSkGcjzYm+xd1jMa9ibqrYfn6O5lDGwnJbfkIODHAFrTja6HuKErR0hZWoF1+x29uml5WvtuHUaNGSXIyUW0Eou6GnNDV45U87RD1NJ8h24dc2DHFAmLBy2bhoIz9pJdbuvRRcsuHbt1CjL2SnMyrVu3rlSp0uDBg+1vm/SWyIlOOZoszszM7N0no/0dHaR/EBP+/X37ou69e/Tv3z/4B+ajFN0Flud4aHQpBvKdKT9ygz79+tK6KhjnoTZdenSNXuc5c+bMAhnqr1OFD91UpoHFpRjIcfMcmhWC9BxaB+S85+hq2BjnFEt3SvdLdx2kfkiTpM8c1g8jciZONc4kFKmrX79+nbvfFqSSadHTr3+/XFFy7KGbxjJGOrjIjmTNIO1OHkJ+Eud21xrmoSAfp/01xumv9sI4DaA7ygziqhQDOS57k95B7k3mb1/UIz72Jrro7mUMbCclt+Qg4McAWtONroe4oSvHmbJk6/Y7enV7a/tCp2s5Pa1Dt4539u0TUZ6mlVjU1ZgbunLcNK+xY+pOO6bI0nz40LJpKLjF3i49ugZpl07dO/cNeiebWzmZyIlOOZostgLmHDlmVKOmjaTvCOP/ps/932bNm40bNy5IQ0Y1ugssz/HQ6FIM5DtTflbAecaOHdukaRPpe8H4v8kvTU1qlhQnzpMz6KYyDSwuxUCOwnMaN20ifXUs//fEy9OSmjXNFc/R1bAxzinWCuiH7pru/QnZ+4v5Pxp3pEPSZM7rhxE5E6caZxLK4uGrWZI6fE16cQrCl7foprGMUQ6uJOkr1fg/8gryjVwcXJGD1jAPBddxOo6NU7W9pvxqr3Gw13/RHWUGcVWKgRzXvcnokdnuTWb8P3v3ASZFkT5+nCwoiop3EpUkigvLLuCSlwzqASLZdGJAMACeIMkDBclKFBUj6KkEJQqsBInCinoEQVYRBEQFERZG5DgQln/9tv/ODbU941Z3zUyH7+fh4Zmp6qmdqaqu6vfd2Rk/xSaqVGMZC2NnKl7tsOB7gNJ2ozpDwlFtJ2fKMvDHTKuVUmvEK6NzTrDgP7GgJddK7te/n9NmmlJiUbXHwlFtJ1LPi4jJ7POLg/+G/l/PxzNiij2lMbUj8to7bNqInMMR/Je99rpjXJyzOsU6WWxIS0tLbZxap0Hdhwb0HD9n8hsfvyXGT/w/8f0X+vzzHw1SGzZp0sTyx4i4juoFlnYaB92UhfZNU34GMTEaN2lct2G9noMeDZ084vZjg3vXS63vq8kTG6qpTAsjbspCO5FnTqPGjf5v5gx8RJ45T/WuH9eZo9rDlplusQbx2kUPiH4Q55HUPz0HPSL6rVHjxvHqH4NzNs7ITJNQBmP5qtew3iODHpM6WZSIclEb3072HtU0lmWRTy7GPZeUTnM7cnWeDs4xXoMZLxOqZ5mFddWUhXYixyYNG4nYpI4Um0zyZWyiSjWWsTB2puLVDgu+ByhtN6ozJBzVdkxTloY/rtsb9Hqqz8T3XwidaT0Giuv2uiLqceZMU0osqvZYOKrt5KLn64v4UY6YnN3z0aM0pnZEXnvFuNRLrf/o4F7SuDw86NG6rlp7nbM6xSdZHMj++sKVK1cOHDiwWfNmidUTS5QoIf5v3qL5oEGDRLmdryZ0HdULLO00DropC+1HSPkF/pg8Yqo0b97c55MnNlRTmRZG3JSFdnI5c5o5bOao9rBlEbbYQOiZ1SKkf5rHv38Mztk4I4uQhAqEW74c08neo5rGsiy3JxfjHpHSaW4H56lGqmeZhXXVlIV2LMUmLRj3P6Uay1gYO1PxaocF3wOUthvVGRKOajsRUpaBMNftYvly+ExTSiyq9lg4qu1Y6nn/nuNKY2qHhbXXjePinNUpbsliBKleYGmncdBNWWg/csoPMaaayrQw4qYstOPSmaPaw5ZF3mIdzjkbZ2SRk1CIMdU0lmWuPrmcQ+k0t4PzVCPVs8zCumrKQjvEJlGiGstYGDtT8WqHBd8DlLYb1RkSjmo7kVOWLqWUWFTtsXBU2/Fkz0eP0pja4ZO11zmrE8ni+FO9wNJO46CbstC+S1N+XqWayrQw4qYstOPSmaPaw5a5eot1zsYZGUkoR1FNY1nm6pPLOZROczs4TzVSPcssrKumLLRDbBIlqrGMhbEzFa92WPA9QGm7UZ0h4ai248mUpVJiUbXHwlFtx5M9Hz1KY2qHT9Ze56xOJIvjT/UCSzuNg27KQvsuTfl5lWoq08KIm7LQjktnjmoPW+bqLdY5G2dkJKEcRTWNZZmrTy7nUDrN7eA81Uj1LLOwrpqy0A6xSZSoxjIWxs5UvNphwfcApe1GdYaEo9qOJ1OWSolF1R4LR7UdT/Z89CiNqR0+WXudszqRLI4/1Qss7TQOuikL7bs05edVqqlMCyNuykI7Lp05qj1smau3WOdsnJGRhHIU1TSWZa4+uZxD6TS3g/NUI9WzzMK6aspCO8QmUaIay1gYO1PxaocF3wOUthvVGRKOajueTFkqJRZVeywc1XY82fPRozSmdvhk7XXO6hTdZPH06dNHIqIZM2aMVLzA0k7joJuy0P7o0aOZPA4hpqhqKtPCiJuy0I4bZ46FHrZM7D2u6x+D6CXnbJyRjRkzxqWd7D1i2qimsSxz78nlHKqnuR2cp7pYOMssrKumLLQzktgkCizEMhbGzlS82mHBdzvV7UZ1hoSj2s64ceM8NtNEzyslFlV7LBzVdrzX89GjOqZ2+GHtddTqFN1ksZwkh5mRihdY2mkcdFMW2nfp+0O9SjWVaWHETVlox6UzR7WHLXP172Ods3FGxjsWHUU1jWWZq08u51A6ze3gPNVI9SyzsK6astAOsUmUqMYyFsbOVLzaYcH3AKXtRnWGhKPajiff36qUWFTtsXBU2/Fkz0eP0pja4ZO11zmrE8ni+FO9wNJO46CbstC+S1N+XqWayrQw4qYstOPSmaPaw5a5eot1zsYZGUkoR1FNY1nm6pPLOZROczs4TzVSPcssrKumLLRDbBIlqrGMhbEzFa92WPA9QGm7UZ0h4ai248mUpVJiUbXHwlFtx5M9Hz1KY2qHT9Ze56xOJIvjT/UCSzuNg27KQvsuTfl5lWoq08KIm7LQjktnjmoPW+bqLdY5G2dkJKEcRTWNZZmrTy7nUDrN7eA81Uj1LLOwrpqy0A6xSZSoxjIWxs5UvNphwfcApe1GdYaEo9qOJ1OWSolF1R4LR7UdT/Z89CiNqR0+WXudszqRLI4/1Qss7TQOuikL7bs05edVqqlMCyNuykI7Lp05qj1smau3WOdsnJGRhHIU1TSWZa4+uZxD6TS3g/NUI9WzzMK6aspCO8QmUaIay1gYO1PxaocF3wOUthvVGRKOajueTFkqJRZVeywc1XY82fPRozSmdvhk7XXO6kSyOP5UL7C00zjopiy079KUn1eppjItjLgpC+24dOao9rBlrt5inbNxRkYSylFU01iWufrkcg6l09wOzlONVM8yC+uqKQvtEJtEiWosY2HsTMWrHRZ8D1DablRnSDiq7XgyZamUWFTtsXBU2/Fkz0eP0pja4ZO11zmrE8ni+FO9wNJO46CbstC+S1N+XqWayrQw4qYstOPSmaPaw5a5eot1zsYZGUkoR1FNY1nm6pPLOZROczs4TzVSPcssrKumLLRDbBIlqrGMhbEzFa92WPA9QGm7UZ0h4ai248mUpVJiUbXHwlFtx5M9Hz1KY2qHT9Ze56xOJIvjT/UCSzuNg27KQvsuTfl5lWoq08KIm7LQjktnjmoPW+bqLdY5G2dkJKEcRTWNZZmrTy7nUDrN7eA81Uj1LLOwrpqy0A6xSZSoxjIWxs5UvNphwfcApe1GdYaEo9qOJ1OWSolF1R4LR7UdT/Z89CiNqR0+WXudszpFN1k8ffr0kYhoxowZIxUvsLTTOOimLLQ/evRoJo9DiCmqmsq0MOKmLLTjxpljoYctE3uP6/rHIHrJORtnZGPGjHFpJ3uPmDaqaSzL3HtyOYfqaW4H56kuFs4yC+uqKQvtjCQ2iQILsYyFsTMVr3ZY8N1OdbtRnSHhqLYzbtw4j8000fNKiUXVHgtHtR3v9Xz0qI6pHX5Yex21OkU3WSwnyWFmpOIFlnYaB92UhfZd+v5Qr1JNZVoYcVMW2nHpzFHtYctc/ftY52yckfGORUdRTWNZ5uqTyzmUTnM7OE81Uj3LLKyrpiy0Q2wSJaqxjIWxMxWvdljwPUBpu1GdIeGotuPJ97cqJRZVeywc1XY82fPRozSmdvhk7XXO6kSyOP5UL7C00zjopiy079KUn1eppjItjLgpC+24dOao9rBlrt5inbNxRkYSylFU01iWufrkcg6l09wOzlONVM8yC+uqKQvtEJtEiWosY2HsTMWrHRZ8D1DablRnSDiq7XgyZamUWFTtsXBU2/Fkz0eP0pja4ZO11zmrE8ni+FO9wNJO46CbstC+S1N+XqWayrQw4qYstOPSmaPaw5a5eot1zsYZGUkoR1FNY1nm6pPLOZROczs4TzVSPcssrKumLLRDbBIlqrGMhbEzFa92WPA9QGm7UZ0h4ai248mUpVJiUbXHwlFtx5M9Hz1KY2qHT9Ze56xOJIvjT/UCSzuNg27KQvsuTfl5lWoq08KIm7LQjktnjmoPW+bqLdY5G2dkJKEcRTWNZZmrTy7nUDrN7eA81Uj1LLOwrpqy0A6xSZSoxjIWxs5UvNphwfcApe1GdYaEo9qOJ1OWSolF1R4LR7UdT/Z89CiNqR0+WXudszqRLI4/1Qss7TQOuikL7bs05edVqqlMCyNuykI7Lp05qj1smau3WOdsnJGRhHIU1TSWZYy7FoyXG6mOmoV11ZSFdohNokQ1lrEwdqbi1Q4LiAcoLVyqMyQc1XY8mbJUSiyq9lg4qu24OmKKPaUYzQ6fjItSf6rO7XBM24lusvj48ePyS8eFRBepXmBpp3HQTVlof/To0UwehxADoZrKtDDipiy048aZY6GHLXvllVd27dolPwM3EE9bPHn59YRnYfKYstCOCD9cNwm9SgyEUjRox7Rp01x6cjmH6EDRjXLPRsfLL7/MeGlh4SyzsK6astDOiBEjWJ+1E10qOlbu64gsjJ2peLXDgu92qtuN6gwJR7Ud9163h+OW63nv9Xz0qI6pHX5Yex21OkUxWbxmzZo5c+bIrx4XEl0kOkruu9jSOOimLLS/bt26Dz74QO4sxIMYCDEc8ghFZGHETVloRzzV999/X34NziaesGoPW3b69OkBAwa4bpcVT1g8bfHk5dcTnoXJY8pCO+vXr3fm8vXzzz/LRV4nBkIMhzxC0SHmZ//+/V13cjmH6DrRgUqnuR2Mly4WzjIL66opC+0Qm0SDhVjGwtiZilc7LCCuZmG7UZ0h4ai249Lr9nBcdD3vsZ6PHgtjaofn116nrU5RTBYL4gpyHMIbMWLErFmz5F6LOb2DnpO19ufOnSv3F2Ju5MiRs2fPlsfmz1gb8ZysteOumWOth+04c+bMtGnT5OfhbOIJi6ctv5KIrE2enKy148BJOGjQoMqVK48aNUqu8K64nFwvv/yy/DycpESJEnKRY4iuUz3NbXL+eAljx44tVaqU+F+ucAZrZ5m1dTUna+0Qm+hlLZaxNnY5xbEdVywgMGVhu7EwQ0xZaMeN1+3huOt63ks9Hz0WxtQmb4+Lhf60MLdNmbYT3WQxXCHagx7t9uE0ukZcVzvwIV2TR1c78XXu3LnWrVu/8cYbcgV8pkSJEnIRHO/6668/fvy4XOpmutZVXe0g9nSNndPagVfpmiG62vEPXT2mqx3AaXTNbdN2SBYj6oMe7fbhNLpGXFc78CFdk0dXO/H1wgsvdOrUKSsrS66Az5AsdqOUlJT9+/fLpW6ma13V1Q5iT9fYOa0deJWuGaKrHf/Q1WO62gGcRtfcNm2HZDGiPujRbh9Oo2vEdbUDH9I1eXS1E0c7d+6sWrXqDz/8IFfAf0gWu1GLFi2+/PJLudTNdK2rutpB7OkaO6e1A6/SNUN0teMfunpMVzuA0+ia26btkCxG1Ac92u3DaXSNuK524EO6Jo+uduLlzJkzzZs3t/CBkvAkksVu1KlTJ9VvkHM4XeuqrnYQe7rGzmntwKt0zRBd7fiHrh7T1Q7gNLrmtmk7JIsR9UGPdvtwGl0jrqsd+JCuyaOrnXgZM2bMvffeK5fCr0gWu9EDDzywePFiudTNdK2rutpB7OkaO6e1A6/SNUN0teMfunpMVzuA0+ia26btkCxG1Ac92u3DaXSNuK524EO6Jo+uduJi8+bNiYmJhw8flivgVySL3ahv377vvPOOXOpmutZVXe0g9nSNndPagVfpmiG62vEPXT2mqx3AaXTNbdN2SBYj6oMe7fbhNLpGXFc78CFdk0dXO7H33//+t0GDBosWLZIr4GMki91o+PDhL774olzqZrrWVV3tIPZ0jZ3T2oFX6ZohutrxD109pqsdwGl0zW3TdkgWI+qDHu324TS6RlxXO/AhXZNHVzuxN3To0Icfflguhb+RLHajyZMnjxo1Si51M13rqq52EHu6xs5p7cCrdM0QXe34h64e09UO4DS65rZpOySLEfVBj3b7cBpdI66rHfiQrsmjq50Y27hxY3Jy8rFjx+QK+BvJYjd66623+vfvL5e6ma51VVc7iD1dY+e0duBVumaIrnb8Q1eP6WoHcBpdc9u0HZLFiPqgR7t9OI2uEdfVDnxI1+TR1U4snThxIiUlZeXKlXIFfI9ksRstWLCgR48ecqmb6VpXdbWD2NM1dk5rB16la4boasc/dPWYrnYAp9E1t03bIVmMqA96tNuH0+gacV3twId0TR5d7cRS32xyKUCy2J3WrFnTpUsXudTNdK2rutpB7OkaO6e1A6/SNUN0teMfunpMVzuA0+ia26btkCxG1Ac92u3DaXSNuK524EO6Jo+udmLm448/TklJOXHihFwBkCx2p82bN99yyy1yqZvpWld1tYPY0zV2TmsHXqVrhuhqxz909ZiudgCn0TW3TdshWYyoD/r69etF+/xNtH8sXbpUjHh6erpcoYiZA8v8OQmPHz+enJy8YcMGuQLIRrLYjfbs2VOvXj251M38uT4jlK45oCuEYS4hMl0zlpmmip4HItN1jpjupySLEfVB37dvn2h/2rRpcgU8qnPnzkWKFDl16pRcoYiZA8v8OQkfeeSRIUOGyKXAH0gWu1FmZmaVKlXkUjfz5/qMULrmgK4QhrmEyHTNWGaaKnoeiEzXOWK6n5IsRiwGPTk5uUKFCkuWLFkNT0tLS+vSpYuYThMmTJAngSXMHKjy7SQcO3aseKrLli2TK4A/lChRQi6C43388cdlypRZtWqVXOFCvl2fEaR3DqzWF8Iwl2BK74w9z0zLNXoeiEzvObLabD8lWYxYDPqGDRuKFSuWBz5QuHBhsWBlZWXJk8ASZg4s8OEkzJcv31//+teCBQvKFUCIEiVKyEVwg6uvvjpv3rxyqTv5cH2GROMc0BjCMJcQjsYZe56ZpoKeByLTeI6Y7qckixGjQT9x4sS6detWw9PS09Pt/xGEhJkDJf6chK1bt+7Zs6dcClyIdxa7VLVq1ebMmSOXupA/12eE0jsHVmsNYZhLyEnvjDUw03KDngci03uOrDbbT0kWg0EHABebM2dOs2bNzpw5I1cAF+Izi12qefPm27dvl0sB3yOEAQDAPtP9lGQxGHQAcKuffvqpatWqX331lVwB5ECy2KU6duy4fv16uRTwPUIYAADsM91PSRaDQQcAV8rKyurSpcukSZPkCsAMyWKXeuCBBxYvXiyXAr5HCAMAgH2m+6mcLF6/fr04aOXKlVI5PGzp0qVi0NPT0+UKAICDzZgx49Zbbz179qxcAZghWexSffv2feedd+RSwPdMg1sAAKDEdD+Vk8X79u0TB02bNk0qh4d17ty5SJEiGj8eGwAQbXv37k1ISNi9e7dcAYRBstilnn322alTp8qlgO+ZBrcAAECJ6X4qJ4uF5OTkChUqLFmyZDW8Li0trUuXLmJaTJgwQZ4HAACnOnfuXNu2bV999VW5AgiPZLFLTZkyZeTIkXIp4HurzYJbAACgxHQ/NUkWb9iwoVixYnngRSJQlEoKFy48YcKErKwseR4AAJzqpZdeat++PUs3lJAsdqm33367X79+cinge6bBLQAAUGK6n5oki4UTJ06sW7fOePMpvEQEiqF309PT+fQJAHCXb775JiEh4fvvv5crgIhIFrvUokWLunfvLpcCvrfaLLgFAABKTPdT82QxvIpAEQBc7ffff2/VqhXfdgULuAZwqbVr13bu3FkuBXzPNLgFAABKTPdTksX+QqAIAK42fvz4u+66Sy4FcoFrAJfatm1by5Yt5VLA90yDWwAAoMR0PyVZ7C8EigDgXl9++WW1atUOHjwoVwC5wDWAS+3fvz8lJUUuBXzPNLgFAABKTPdTksX+QqAIAC51+vTpxo0bz507V64AcodrAJcKBAKVK1eWSwHfMw1uAQCAEtP9lGSxvxAoAoBLPfvssw8++KBcCuQa1wAulZWVVaZMmbNnz8oVgL+ZBrcAAECJ6X5KsthfCBQBwI0+++yzpKSko0ePyhVArnEN4F5VqlTJzMyUSwF/Mw1uAQCAEtP9lGSxvxAoAoDr/Oc//6lXr15aWppcAajgGsC96tatu2fPHrkU8DfT4BYAACgx3U9JFvsLgSIAuM7gwYN79eollwKKuAZwr1tuuWXz5s1yKeBvpsEtAABQYrqfkiz2FwJFAHCXdevW1axZMxAIyBWAIq4B3Ktr166rVq2SSwF/Mw1uAQCAEtP9lGSxvxAoAoCL/Prrr7Vq1VqzZo1cAajjGsC9Hn744Xnz5smlgL+ZBrcAAECJ6X5KsthfCBQBwEUef/zxAQMGyKWAJVwDuNfAgQPffPNNuRTwN9PgFgAAKDHdT0kW+wuBIgC4xfLly+vUqXPy5Em5ArCEawD3GjNmzMSJE+VSwN/Wr18vgtuVK1fKFQAAINeWLl0q9tP09PTQQpLF/kKgCACukJmZmZSU9Omnn8oVgFVcA7jXtGnThg4dKpcC/rZv3z4R3IqzQ64AAAC51rlz5yJFipw6dSq0kGSxvxAoAoAr9OjR45lnnpFLARu4BnCvWbNm9enTRy4FfC85OblChQpLlixZDQAAFKWlpXXp0iVPnjwTJkyQdliSxf5CoAgAzrdw4cLU1NT//ve/cgVgA9cA7iUu5bt16yaXAr63YcOGYsWK5QEAAJYULlx4woQJWVlZ0g5LsthfCBQBwOF+/vnnxMTErVu3yhWAPVwDuNenn3562223yaUAzp8/ceLEunXr5PdKAQCAP5Oeni59+kQQyWJ/IVAEAIf7+9//PnbsWLkUsI1rAPfKyMho3LixXAoAAABEAclifyFQBAAnmzlzZvPmzc+cOSNXALZxDeBeBw8eTEpKkksBAACAKCBZ7C8EigDgWD/88EPVqlUzMjLkCkAHrgHc69SpU+XKlZNLAQAAgCggWewvBIoA4ExZWVmdO3d+4YUX5ApAE64BXK1cuXLhPlQOAAAA0Ihksb8QKAKAM7355putW7c+d+6cXAFowjWAqyUlJR08eFAuBQAAAHQjWewvBIoA4EDfffddQkLCnj175ApAH64BXK1x48Z8Rg0AAABigGSxvxAoAoDTnDt3rk2bNq+//rpcAWjFNYCrtWvXLj09XS4FAAAAdCNZ7C8EigDgNC+++GLHjh2zsrLkCkArrgFcrVu3bmlpaXIpAAAAoBvJYn8hUAQAR/n6668TEhIOHDggVwC6cQ3gao8//vjMmTPlUgAAAEA3ksX+QqAIAM5x5syZli1bvvvuu3IFEAVcA7ja008/PW3aNLkUAAAA0I1ksb8QKAKAczz33HN33323XApEB9cArjZp0qTRo0fLpQAAAIBuJIv9hUARABxi27Zt1apVO3TokFwBRAfXAK42ffr0AQMGyKUAAACAbiSL/YVAEQCc4PTp040aNZo/f75cAUQN1wCuJpaLnj17yqUAAACAbiSL/YVAEQCcYPjw4d27d5dLgWjiGsDV1qxZ06VLF7kUAAAA0I1ksb8QKAJA3H322WdJSUlHjx6VK4Bo4hrA1bZs2XLzzTfLpQAAAIBuJIv9hUARAOLr5MmTdevW/eijj+QKIMq4BnC1vXv31qlTRy4FAAAAdCNZ7C8Ein/qwIEDb7/99rlz5+QKZPvyyy8XLlwolwLItUGDBvXu3VsuBaKPawBXO3bs2A033CCXAgAAALqRLPaXuAeK+/bt27Rpk7ixc+fOHTt2yNXZ3nvvvWezTZgwYcmSJbnJ27Zr127WrFlyaS5IDzxz5kydOnXeeeedkEPiQ/UVhR4fvH3LLbfo/fqsX375pVKlSp9++qlcYeb1119ftWqVVLhgwYI5c+aczx7l5cuXS7WCGO558+b16tXrvvvuE3Mg3CQBXGrt2rU1a9YMBAJyBRB9cb8GgB1ifyxTpkxuLooAAAAAO0gW+0vcA8Unn3xy5MiR4kanTp3+9a9/ydXZWrVqVb169UcffbRbt25/+ctfGjZs+Pvvv8sHXah27dqvvfaaXJoLo0aNWr9+ffDugAEDRowYEVIfN6qvKPT44IsS3Riuky3Iysq67bbb5s2bJ1eE8dRTTyUnJ4eWnD17VszAadOmnc8e5T59+oTWCr/++mtqaqoY9F69ek2cOFEcIG7rzXcDcRQIBGrVqrVmzRq5AoiJuF8DwKYbbrjh2LFjcikAAACgFclifzECxYMHD/73v/81Ss6ePXvgwIGsrCzj7q5du1atWrV58+YzZ84EHyWO+fe//52enn7ixIlg4fkwB0d20003bdiwQdy4+uqrv//+e7k6W2ga8ZtvvsmTJ8/KlSuDtaZPRkqt7tu3b82aNV999ZX0BhxxVzxnUSVeslFy+PDhkydPGrdPnz69ZcuWrVu3hr6cn3/+WRxw/PjxtWvX7t+/P1ieU87Gz9toM5evKCj0+OCLMpLFR44cWb16tWgheLDxBETAKcrFwUahacdKR4Z21/k/e1bffvutGLtt27YFSz788MMiRYqIF34+TLK4e/fuFSpUOHToULBE/Ojt27eHHAK42OOPPz5w4MDg3TguxfCnuF8DwKY6ders3bv3PIMIAACAaCJZ7C9GoFi6dOkVK1YYJSLAyJMnz7Fjx86dO9ehQ4dSpUq1aNEiKSmpZcuWxgFff/31ddddd8MNNzRo0OAvf/lLWlra+ezEqOnB4WzduvVv2fLnz98ym7gh7t57773yoRemEX///Xdx5HvvvWfcNX0y5y9MlXbr1q18+fJNmzYtV65crVq1jh49apR/88034qlee+21TZo0Ef2wYMGC0Ad+/vnn11xzTfXq1RMSEipWrPjll19TpVZFAABqrklEQVQajxIl3bt3FyXiyMKFC0+dOtUol5g2bqfN3LyiUKHHB2+LH3TXXXeJR4nuKlKkyLhx44wDRLloUwxfjRo1jHcKh+tY6UjVZ5WamvqPf/wjeLd9+/bi+Ri3cyaLf/vtt0KFCr355puhhYBnLFu2rE6dOqG/bon9Ugyfi9c1AHS5+eabt2zZcp5BBAAAQDSRLPaXCIHitm3bLrnkkmAiw/hIzaysrDp16gwZMsQoXLhw4dVXXy2OMT04giNHjojg5KmnnkpJSRE3unfv3qZNG3Fj9erV8qHZacSePXuKp/TDDz8MGDBA/CBx43z4J3P+wlRp8I29IhBq3779oEGDjMfedNNNDzzwgPEe2LNnzxrvbzUeKO5WqVKlf//+xgPFT69Ro4bxJp3q1auLIOrXX38Vtz/44INLL70057toTRu32eafviJJuGRxxYoVMzMzz2d/UmrBggX37NljlIugMZjejdCx0pGqz2r69OkiLjXeryTmQKFChYJvEs+ZLN60aZOYisGUOuAl4jQUZ73xie1BsV+K4XPxugaALl26dDE+x4ZBBAAAQPSQLPaXCIGiuFGoUKFRo0bt2rUrePx3330nateuXbvlD8WKFfv0009ND/5T/fr1Gz58+PnsaOftt9+Wq//QqlWrPH8ITS+GezLnL0xiirhIPGTy5MnPPvts27ZtRWuicPfu3eKxP/300x8/5P8zHvj111+L2uAHMuzZs0fcNT4lo3r16qIpo1z0kig3MtehTBu32eafviJJuGRx6Ecw16xZ03gXsygPvsv4fMSOlY5UfVa//fZb0aJFjfdZiyOvvfba4N/J5kwWiwA42EWAxzz00EPDhg2TCuO1FMO34nsNAPt69uxpfI4/gwgAAIDoIVnsLxECxfPZfyV98803X3zxxRUqVJg9e/b57Lej5suXr9WFNm7caHpwBD2ylS1bVjxc3Ljyyis7duwobvz444/yoSFpxMOHD4vDatasaXzBXYQnE5rEbNOmTXJy8jPPPDNlypQ777xTVBmPLVCgwP9+xh+MB65Zsya09tSpU6JPjPcAVg/5jjij/Ntvvw0eaTBt3Gabf/qKJOGSxa+//nrwmNatW//zn/80ykO/+C5Cx0pHqj4r4f7772/Xrp24kZSU9PTTTwfLW+VIFot4VXTFunXrQgsBD1iwYEFqaurp06el8tgvxfC5eF0DQJcBAwbMmDHjPIMIAACAaCJZ7C9GoFi5cuVFixYZJf/+97+DMYbh9OnTU6ZMKViw4K+//rpv3748Zu97DQo9WK4LMX369BdeeEEEJOLG008/LYKc6dlCf25Qq5A04vHjx4sXL/7KK6+cz/46tXBPJpjE3LNnjwiKgk9myJAhRhLTeGzol7wZjAcabw0OZq4zMjKCd3OT2DVt3Gabf/qKJOGSxcG/PBWqVas2bdo0ozw0BRyhY8Mli3P5rIT169eL6SFi2rx58xpfy2MIHeWgSpUq9ejRQyoEXO3nn38Wp97WrVvlingsxfC5eF0DQJfRo0dPmjTpPIMIAACAaCJZ7C9GoHj77bffd99957MjhM6dOxsxhggnvvnmG+OwDRs25M+f3/jK7KZNm3bq1Om33347n/3JA6tWrTp79my4gyNYunRp8+bNxY2XXnrJ+OnhSGnEUaNGXXPNNcab8kyfzPmQJOb+/fvFy9m+fbu4/e2331599dXBJGbjxo3bt2//n//8R9wWEZHxqRHGA0VTNWvW7NGjh7ghGuzSpUvDhg2NR+UmsXverHGbbebmFYUKlywuXbq0ESLOnz+/cOHCObPVhnAdGy5ZnMtnZRAxrZh44keEFrbKfo/5LyHET1ywYIGIV8eMGWN8iqLoyeeff37WrFmhDwTc5Z577gn9LJdQcVmK4WdxvAaAFi+//LLxNzoMIgAAAKKHZLG/GIHitm3bSpYsWapUKXF35MiRRowhQoUrrriiTJkyCQkJ4oYISIyH/PTTT61bty5atOj1119/+eWXJyUlnTlzJtzBEQwYMMD4/NwuXbpImUqJlCwW0ctVV11lvCXW9MmcvzBV2rdv3yJFilSpUqVSpUqPP/54MIn5/fffN2nSRDy2cuXK4jkvX7489IE7d+5MTEz861//Wrx48Zo1a+7evdt4VG4Su+fDNG6nzdy8olDhksWPPvrotddeKx548cUXv/HGG8YBOZPF4To2XLL4fO6elWHUqFHiNUo/sVXIJ1MbjNTz/Pnzr7vuurx584rJWahQIfGsjC/lA9xo5syZLVq0MM6mnOKyFMPP4ngNAC3EkiI23PMMIgAAAKKJZLG/GIGi8Pvvv+/atUv6k8OzZ8/u3bv3m2++OXXqVGj5+eyMbUZGRmZmZrAkwsHRlvPJSA4fPiyemPHeWImIpr7++uvg139LREB18OBBuTTXTBu32aYhwiv6U//973937tyZmy86/9OOldh5VpH98MMPoieNd2oDLiWmcUJCgjin5IoQrl6K4TreuAbws7S0tG7duhm3GUQAAABECclifwkGigCA6MnKyurUqdMLL7wgVwDxwzWA26WnpxvfGQsAAABED8lifyFQBIAYeOONN1q3bn3u3Dm5AogfrgHcLiMjo3HjxnIpAAAAoBXJYn8hUASAaNuzZ09CQgIftw2n4RrA7Q4ePJiUlCSXAgAAAFqRLPYXAkUAiKpz5861adMm+H2SgHNwDeB2p06dKleunFwKAAAAaEWy2F8IFAEgqqZOndqxY8esrCy5Aog3rgE8oFy5cnwfHQAAAKKKZLG/ECgCQPRkZGQkJCQcOHBArgAcgGsAD0hKSjp48KBcCgAAAOhDsthfCBQBIErOnDnTokWL9957T64AnIFrAA9o3LhxRkaGXAoAAADoQ7LYXwgUASBKnnvuuXvuuUcuBRyDawAPuO222z799FO5FAAAANCHZLG/ECgCQDRs27atWrVqhw4dkisAx+AawAPuvffetLQ0uRQAAADQh2SxvxAoAoB2p0+fTk1NnT9/vlwBOAnXAB7Qp0+fWbNmyaUAAACAPiSL/YVAEQC0GzZs2EMPPSSXAg7DNYAHDB06dNq0aXIpAAAAoA/JYn8hUAQAvTZt2pSUlJSZmSlXAA7DNYAHTJw4ccyYMXIpAAAAoA/JYn8hUAQAjU6ePFm3bt1ly5bJFYDzcA3gAW+++ebAgQPlUgAAAEAfksX+QqAIABoNHDiwT58+cingSFwDeMC8efMefvhhuRQAAADQh2SxvxAoAoAua9asqVWrViAQkCsAR+IawANWrVrVtWtXuRQAAADQh2SxvxAoAoAWgUCgZs2aa9eulSsAp+IawAM2b958yy23yKUAAACAPiSL/YVAEQC06N2796BBg+RSwMG4BvCAPXv21KtXTy4FAAAA9CFZ7C8EigBg30cffVS3bt2TJ0/KFYCDcQ3gAZmZmVWqVJFLAQAAAH1IFvsLgSLgAfv371+NHDZu3Hj27Fm5s6Lg6NGjSUlJn332mVwBOBvXAB4gVrkyZcpkZWXJFQAAAIAmJIv9hUARcLsRI0bkz58/D8yUK1fu888/l7tMt+7duw8fPlwuBRyPawBvqFy5Mt+rCQAAgOghWewvBIqAqx06dCh//vx33323/K5arF49d+7cihUrli9fPqrvL543b16jRo1Onz4tVwCOxzWAN6SkpOzfv18uBQAAADQhWewvBIqAq33yySd58uRZuXKlXIFsixYtEv2zZMkSuUKTQ4cOVatW7csvv5QrADfgGsAbWrRowSoEAACA6CFZ7C8EioCrrV69Ok+ePOJ/uQLZzpw5c9VVV911111yhSai5eeff14uBVyCawBv6Ny589q1a+VSAAAAQBOSxf5CoAi4Ws5k8a5duz7Ptnnz5oyMjGPHjv3v6Kg5efKk8UO/+OILp33PUs+ePYsWLSqeoVxh27vvvtuyZcvff/9drgBcgmsAb+jevfuiRYvkUgAAAEATksX+QqAIuFrOZHGrVq0u+Iq3PHmuu+66KVOm5DKHO3z48ISEhDZt2sgVEU2dOjX445z2BjfxfMSzmjlzplxhz/fffy866ptvvpErAPfgGsAb+vXr969//UsuBQAAADQhWewvBIqAq4VLFhcoUKB27drlypXLly+fkcPt0qVLbvLFPXr0EAdff/31ckVEN910UzBZfP/998vVcSVeddmyZdu2bStX2CDa7NChw0svvSRXAK7CNYA3jBw5csqUKXIpAAAAoAnJYn8hUARcLVyyuHjx4sbd7777rm7dukYa99133zUK33zzzY4dO9apU6dq1aoNGzYcPHhwZmamKB8wYEDFihXFkZdeemmXbGvWrIlwvCEjI8Nov169esZj//Of/wRrhZUrV95xxx3Jyck1a9a88847d+zYEblcWLp0aYcOHapXry5+6MCBA48ePWqUb9u2rVu3brVr105KSmrZsmW/fv2MZxKu3CDuFipUKLTEptdee61t27bnzp2TKwBX4RrAG6ZOnfrss8/KpQAAAIAmJIv9hUARcLU/TRYLe/fuNZK5t956q1HSrFmzSy65pEqVKlWrVjXeelyzZs2srKzq1asbRwZNnz49wvFGawMHDhQlxYoV27lzp/GoYFZaGDt2rFGYN2/eokWLihvGn0uHKxdGjx5tVF1//fVXXHGFuFG5cuVjx45lZmYad0uXLp2YmHjZZZeJ2xkZGeHKg89h8+bNouS1114LltixZ8+ehIQE0atyBeA2XAN4wzvvvNO3b1+5FAAAANCEZLG/ECgCrpabZLFQunRpUVipUiXj7meffXb69GnjdlpampGZ3bRp05EjR/7+978bRx7MZrxHONzx4u65c+fKlCkj7t53333n//g8ipYtWxoH//TTTwULFhQl9evX//nnn0XJjh07vvzyy3DloQ8ZMWKEuJuZmXn11VeLu0OHDl2/fr24UbhwYePb6rKysj755JNjx46FKzeeg+GGG25o0qRJaIk1Z8+e/dvf/mbk0AG34xrAGz788MMHHnhALgUAAAA0IVnsLwSKgKvlMll85ZVXisIqVaoYdzdt2tSxY8fKlSuXLFnyqquuMpK/77///vkwn1kc4fjly5cbd5ctWybujh8/XtzOly/fDz/8IO6KY4zaFStWhDYYrjy06uabbzY+CsNIFjdq1OjgwYMXXXSRuC2eQ2pq6mOPPWa88HDloYYNG5Y/f/4ff/xRKlc1efLkXH76M+B8XAN4w/r168USLZcCAAAAmpAs9hcCRcDVcpMs/uSTT4z0a9euXcXdAwcOXHrppeJutWrV+vTp8+CDDxq1M2fOPG+WLI58/F133WXcbdCgQaNGjZKTk427Y8aMEbVvv/22cfezzz4LNhihPLSqYsWK14do166dqF2xYkXz5s2ND5owzJ07N0J50K5du0ThhAkTQgtVffXVV1WrVrWfcQYcgmsAb9i+fbtYAOVSAAAAQBOSxf5CoAi4WuRk8ZEjRz744APjYyKEtWvXisI5c+YYd/ft2yfuLl682LhrJH979+4tbl977bXBBiMc/+uvv1588cXGXYnxLuYvvvjCuDt48OBggydOnAhXHvqQBQsWBKtOnTq1f//+33//3fhOuaysLPFkqlWrlif74y/ClQcfbrgpm1SYe2fOnGnWrNns2bPlCsC1uAbwhu+//97O4gYAAABERrLYXwgUAVcLlywW8ufPb9zIk/0lcmPHjjUO2Lhxo1HYvn37Z599tlSpUsZdI1k8depU425SUlKjRo32798f4fg33njDuD137txv/zBu3Dij0HjXcLNmzYy74on17NmzZs2axhfZhSsXmjRpIsqvuOKK/v37jx49+v777y9evPhzzz2XkZFRunRpcfCYMWOeeeaZyy+/XBz29NNPhys3WguaMGGCKN+1a5dUnkvimXTr1k0uBdyMawBvCAQClStXlksBAAAATUgW+wuBIuBqEZLFefPmvfjiiytWrHjHHXd88skn/3vM+fOPP/64qBXHFCtWbPLkycbxRrL4t99+69ixo5FvFTIyMiIcn5qaKm6ULVs29DN8jx49anxD3aOPPiruHj9+vFu3boUKFTIeddFFF3344YcRys9nf6nd3XffbTSSJ/uFJCUlLV++/Pvvv69QoYJRmCf7k5Fvv/128YTDlQefkuHHH3/Mnz//sGHDpPLc2Lx5c2Ji4uHDh+UKwM24BvAGsQKLdfjs2bNyBQAAAKADyWJ/IVAEXC1nsjiXjhw5sn379lOnTskVYageL/nPf/6zY8eOjIwMcSM35cLJkydF1ddff/3rr7+Glh87dmxntkAgkJvyUE2aNLnhhhvk0j8jXnWDBg2CuWzAM7gG8IwqVapkZmbKpQAAAIAOJIv9hUARcDXLyWJ/eu2110R3bd68Wa6IaMiQIY888ohcCrgf1wCeUbdu3e+++04uBQAAAHQgWewvBIqAq5EsVpKZmVmoUKF+/frJFeFt3LgxOTn5+PHjcgXgflwDeMbNN9+s+mswAAAAIJdIFvsLgSLgaiSLVbVt21b6kOUITpw4kZKS8vHHH8sVgCdwDeAZXbp0WbNmjVwKAAAA6ECy2F8IFAFXI1msaubMmaLH1q5dK1eY6ZtNLgW8gmsAz+jRo8eCBQvkUgAAAEAHksX+QqAIuBrJYlUnT54sWrRoz5495YocPv7445SUlBMnTsgVgFdwDeAZ/fv3f+utt+RSAAAAQAeSxf5CoAi42ocffpgnT56JEyeuRq41b968WLFiixcvlitCiNobb7zxpZdekisADxHXAHIR3Klnz559+vQJLVm1alXoXW9IT08/deqUvBECAAAgykgW+wvJYsDVJk6cmAdRcPnll1966aVyKeAt4hpALoI7XXLJJaFLVsGCBUMqPaVw4cITJkzI5efOAwAAQAuSxR737bffht6VksVSLQCHW7x4sQieJ02atAa5tnLlStFjwXcWv/rqqxe+d231mDFjatSosWzZMqkc8BjeWewZQ4YMufPOO43bK1askN5l7BlpaWldunQRu96ECRPk7RAAAABRQ7LY46ZNm7Zx48bg3dBksSgXtcG7AJxvNZ9ZbNvjjz8eevfw4cOJiYmbN28OLQS8gV8Ye8PZs2cDgUBoyeLFix944AHj9qRJk5YsWRJa6zGdO3cuUqQIn0cBAAAQMySLPe7IkSM33nhjMF8cDBRFiSgXtf87FIDjkSy26fTp0+XKlRP/B0vuvffeMWPGhBwCeAe/MPaM8ePHf/XVV8G769at69Spk7hx4MCB66+//rfffvvfoZ6zdOlSsfGlp6fLFQAAAIgOksXe17Vr1woVKhjhohEoitvXXntt37595UMBOBvJYpu2bNkilkHxv3F31qxZzZo1O3PmzIVHAR5x5MiR6667LucvjKdNm8YvjN3lp59+SkhIePXVV427X375ZYsWLcSNbt26NWnS5IJDPYeNDwAAIMZIFnvf66+/XrJkycqVK4twUQSKRqZYlOzatUs+FICzETPb9NZbb4ll8JVXXhG3f/jhh6pVq+7cuVM+CPCQDh06lC1bNvQXxv369eMXxm40ZswYMYL333//2bNn9+/fn5KSsmrVKlEyePBg+VBvYeMDAACIMZLF3ieCivLlyzdp0qRq1aoiqKhQoULFihXvuOMO+TgAjkfMbFPfvn1Lly59zz33ZGVlde7cecqUKUb5mTNndu7ceeDAgQsPB1wvIyNDbP3lypUzfmHcr1+/UqVK8QtjNzpx4oS4kBMrWIMGDfbv33/99dffeOONYkzFbflQb2HjAwAAiDGSxb4wcOBAEU48+uijFSpUEDeqV6++du1a+SAAjkfMbFOjRo2MNXDkyJH169cfM2bMAw88kJqaWqlSpVdfffXcuXPyAwD3a9CggZj2FStWLJGtVatWd955p3wQ3ODtt9+uV6+eGMTKlSsbSf+qVavKB3kOGx8AAECMkSz2hRMnTpQuXdqIEitUqNCoUSP5CABuQMxsx+nTp6+55hqxDJYqVapMmTINGjRISUkpWbJkamrq3r175aMBr0hLSxNz3rgGKF++vLgG4BfGLnX27NmGDRtWr17dGE3hySeflA/yHDY+AACAGCNZ7Bd33HGHEVekpKTMnDlTrgbgBsTMdmzZsiU0yVKqVKny5ctPnTqVNxTD84zPKxDuu+8+z38fmretWLEiKSnJGE2xgn3xxRfyEZ7DxgcAABBjJIv9Yu/evSVLlixdunTVqlVPnz4tVwNwA2JmO956663atWsbSZZKlSq1aNGCNxTDJ6ZOnWpcA9x+++38wtjtOnbsaOSLxTrmh991sfEBAADEGMliH2nSpEmpUqUmTJggVwBwCWJmO/r27ZuYmFiuXLmKFSu+8sorfkiyAIbTp0+LmX/rrbdWr16dXxi73Y4dO2644QZxRffII4/IdV7ExgcAABBjJIt9RFxnX3fddUeOHJErALgEMbMdTZs2LV++/K233sobiuFDTzzxRNmyZfmFsTf07t27dOnSS5YskSu8iI0PAAAgxkgW67Fu3bpRo0aNdrxevXrJRQ4julF0pty/ALJZiJkDgcD48ePHjBkjn2w+M2LEiGuuuaZz587OX6vFYIkhEwMnj2XUeGCS0Gl/aujQoeXKlRP/yxWOFJcBff75590yoE899dS11147fPhwucLZRPeKTlYdVgsbHwAAAOwgWazB/Pnz33///QA0EZ05e/ZsuZcBWIqZx48ff+DAAfk085+9e/du375dLnUqMWRi4OSxjBpvTBI67U+tWrVKLnIwBjSyZcuWyUVuYGFYLWx8AAAAsINksQbjxo2Tr4Vhz6hRo+ReBmApZh49erR8gsENxMDJYxk1npkkdJrHMKCepDqsFjY+AAAA2EGyWAOSxdqJLpV7GYClmJkMiEvF8ndmnpkkdJrHqGYV7RCTR/7xiA7V89TCxgcAAAA7SBZrQLJYO5LFgCkLMTMpLZdSzafY4ZlJQqd5DMliT1I9Ty1sfAAAALCDZLEGkZPFx48fX7lyZd/+/Ro1bZRQLaFEiRLi/9SmqX36Pb58xXJRKz8AJIuBMCzEzJFTWmIJWrFyhViOxKIUXKDEYtVvQD+xcLFAxZFqPsUOz0wSOs1jnJMsFkO2/P8GtE/IgFYVA/rkgCcZUFWq56mFjQ8AAAB2kCzWIEKyOC0trWGjhin1az84oMf4OZPf+PitudsWif/FbVFSq/5N9VLrfbjkQ/lhvkeyGDBlIWaOkNJatGSRWILEQmS6QImFSyxfYhGTH4aYUM2n2OGZSUKneYxDksULFy+qG3FAUxunMqC5p3qeWtj4AAAAYAfJYg1Mk8WZmZlP9n8yqVbSkJeGiaAi3D9Rm1izeu++vcXxchM+RrIYMGUhZjZNaYkFp1ff3mLx+dMFKqlWsljKWKBiTzWfYodnJgmd5jFxTxaLAXrsiccSayb+6YAm10ru378/A5obquephY0PAAAAdpAs1iBnslhEC527dm7RtuW76bNzBhXSP3FMszbN23VqR4wRRLIYMGUhZs6Z0hJLzW0d24llJ5cLVIu2rbp07cICFWOq+RQ7PDNJ6DSPiW+yWAxN24635X5AW97GgOaK6nlqYeMDAACAHSSLNciZLO7fv3/Ltq3e37IgNJD4YOvCwVOHtruvfcuON3d99K7n50wKVokjRTTSq29vqR3fIlkMmLIQM+dMafV6ordYcJQWqJa3tRLLmtQOoko1n2KHZyYJneYx8U0WP/qPx1QHtNVtNzOgf0r1PLWw8QEAAMAOksUaSMnitLS05Fo13tl4wftQZqx99/rqN+QJUbBQwdADxPGJNasvuvDzi9PT07/66qvQEsPatWt37969ffv2L774Qq77wy+//LJ06dJXX3117ty5GRkZcnW2cC2I8GzatGnG7WeeeWb69OkX1kcdyWLAlIWYWUppLVq8KLFmooUFqkatGqYfynnkyJFly5a99tprM2fO3LRpk1ydO3rXmdAVLAbEQrom24YNG8SKreurrlTzKXZEb5KE7jK57ChRLo7ZsWOHXJHt0KFD8+fPF+M7b968gwcPSrWe6bRgR+3fvz+0ylFiMKBxTBYvWLzQ4oDeVDPCgH733XehVdZEdYmLwbCqnqcWNj4AAADYQbJYg9Bksbh6btyk8dMvDQ8NHsS/Gg1qGnFF+esrNG/f8rpqlaUAY272Z97Vb1Q/9Lr8zjvvrFatWvCu4aOPPhLtrF27VtQ2aNBAqjXMnDmzZMmSRYsWrVWrVkJCQsGCBdu1a5fzij9cCx06dHjssceM240aNXr88ccvrI86ksWAKQsxc2hKSywC9VLr5/zwzdwsUGJZa9ykibSMzJo1q1SpUhdffHGNGjWSk5OLFCkiFpwVK1aEHpMbeteZ0BUsBsRCWqBAgSuvvPLyyy/Ply/fZZdddu+99+7evVs+TpFqPsWO6E2S0F0mlx21YMEC8VMqV64slQvTp08XDy9RokS9evXEHnfFFVdIv2PwTKcZHXXppZeKxzZu3HjXrl3BWueIwYDGK1kshqNuaj3LA9okzICKLhKPrVOnTrgcay7lZol78MEHhw0bJpfmQgyGVfU8tbDxAQAAwA6SxRqEJotXrlxZt2E9KXIYN3OCEV00uCX1g60LjcIBEwdLh4l/terftGLl//IsS5cuFY/asGFDsES45557EhISAuFTvUuWLMmfP/+jjz76888/GyUZGRmdOnU6evTohQeGbSGU3iROLpEsBkxZiJlDU1rLViwTi4zlBapew3piiQu2Ziw1vXr1OnTokFEi1hxx8r7wwgvBY3IpLuuMLqEL6eHDh+fPn1+lSpVrrrlm7969Fx6oRjWfYkf0JomULM5NR3Xo0EEcJqbW8uXLQ8sXLVqUN2/e4HeIHTt2bPDgwaJk4cKFwWO812mbNm0qUaJEu3btgrXOEYMBjVeyOG35R7YGNLV+uAHdsmWL6KJWrVoFa6NE/IiHH35YLs2FGAyr6nlqYeMDAACAHSSLNQhNFg8aNOjhQY9JYUPXR+40AoyXlryaM6gI/dd9QI8+/S7ImFSoUCH0cv/gwYNFixYdM2ZMIHyqt1atWomJiTnfR5xTuBZGjBjx4osvGreNJI74iaLZ2rVrB8uFIUOGvP766+PHjxfl99xzTyD7Xc+izZo1a4qSXr16ff/996ZHvv/++w899FCwHWHKlCn//Oc/g3dJFgOmLMTMoSmt3v36iEXG8gL16OBeYokLtibOdNMFJCj3S0SEdSbcQwwffPDBLbfckpCQkJqaOmHCBKMwdAUTN8STrFq1ateuXbds2RJ8oHhub7zxxuTJk1NSUurXrx/6E4U5c+a0atWqWrVq7dq1W7duXbA8PT29U6dOYoG96aab7r77buP9njkXUlF+8cUX/+Mf/zDuRngJ4Z5eQD2fYkf0Jkm4ZLFB6ihBdE7hwoXnzp3brFmze++993+HBgI1atSoXr16aEkge79LSkoK3vVep/1f4717X3311cG7ppMz57lmOlcD4adchDMi3ASOwYDGK1ncq29vOwP62ODeEQZUrHXFixcP3g2EGdNAdqZ12LBhycnJdevWnTZt2vPPPy8GKHDhEmc60GIxLFmyZKVKldpn+/rrr3POkECYyRCDYVU9Ty1sfAAAALCDZLEGoclicd08fvZkKWxocHNDcZl7efHLc0YU0j/x2IZNGgZbC2THb1ddddWRI0eMuy+//HKhQoWMz7zLeUEv7N27N2/evEY2+U+ZtiD87W9/6969u3G7UaNGIky97bbbRFQggpaCBQuKeCNYVapUKXHwjBkz3n///UB2ACBimAULFrz33nt16tSpV6+e6ZE7d+7Mnz//qlWrjFrx6v7yl79MnDjRuBsgWQyEYSFmDk1pNWjc0OYC1ax5M6MpsQqJRxmZi3CUlohw60y4hwSyf8kkjuzbt+/ChQvfeOON4HuTgyvY2LFjixQpInpANHvrrbcWL1583759xjHiJ5YuXbpDhw4zZ858+umn8+XLt2jRIqPqxRdfvOSSS8TTECUDBw4ULWzcuDGQ/SY7sVI98MADixcvFi+nf//+mzdvDoRZSNu3bx/8EKFwLyHC0zMeJY9l1ERpkgT+LFkcuLCjhPHjx5coUSIzM1MMaNGiRYNvWjfmm+ix4JGGSZMmifLg38h7r9OEu+++u0KFCsbtcJNTOtfCzdUIUy7CGRFuAsdgQOOVLG7QuIHNAW3evHmwNamjxEJ33XXXBe+GG1NB3C1WrJhYZj/44APRoFgk//73vwdClrhwA71mzZqkpKRWrVq9ne3HH3/MuRqHmwwxGFbV89TCxgcAAAA7SBZrEJosrpZY7Y1Vb0thQ3L9GuIy95pK1+aMKKR/4rE3Vrsx2Fog+xMkRMz27rvvGnfFFXzbtm2N26YX9J988on4WbNmzZLKTZm2EMiRLC5XrtyxY8eMu3369Al+RJ2ouuGGG8K9hdmIGT7//POA2ZEiMjFiHuGtt94SkZIIZoK1JIsBUxZi5tCU1o1Vb7S5QIklzmjKWGoWLFgQbFwsO0ZiYtmyZUZJzhM/lLREhFtnQoU+5MiRI1dcccXgwYPlg/5YwY4ePXr55Zc/++yzRqG4W7Zs2f79+xt3xU9MSkoKPrdmzZoZi5447Kqrrgpd1e+6666OHTsGsv9+XPz0nN8XarqQPvHEE1deeaVUGAh5CZGfXkA9n2JHlCZJIBfJYqmjkpOTe/fuHcj+SJPLLrss+C1e69evN93ajA9OXbNmjXHXM51WrVq1jz76aMmSJUOHDi1QoMCAAQMCESendK6ZztXIUy7cGSEJPQdjMKDxShbbH9DExMRga6KjxPomev6ZZ55p165doUKFxGWPURVhTA8fPly0aNEpU6YY5YcOHSpevLiULDYdaIP0MRTSDIkwGWIwrKrnqYWNDwAAAHaQLNYg9CpfXG3P+fd8KWyolXqTuMwtVa50zohC+iceW6ZsmWBrBhGz3XrrreLGl19+mTdv3jlz5hjlphf0GzduFD/rX//6l1RuyrSFQI5kcejfGIorfvEcjHeRiKoHHnggWCXs2bNHRBQNGzZMSEioUqWKOPKDDz4wPXLu3LkXX3yxkSBu3Lhxt27dQmtJFgOmLMTMoSktsbzYXKDEEmc0ZSw1xgluMJJNl19+efDjOHOe+BGWiHDrTLiHGE8g+Ba8UMYKZqRR0tPTg+X33HPPzTffbNwWPzE0kyKeZ5s2bQLZf9MtHnX//fcPHDhwwIAB/fv3b9q0qfEx8UePHr3xxhuvueaaPn36LFy4MPgHH6YLqTjmr3/9q3Hb9CVEfnoB9XyKHVGaJIFcJItDO8ro/OCYiikRPD7c1jZ79mxR/sknnxh3PdNphQoVKlWqlJhsdevWHTt2rPGVAxEmp3Sumc7VyFMu3BkRCDOBAzEZ0Hgli7UP6JVXXinWJXE5V7RoUXFFF1w9Iozp559/LqqMdwobWrRoISWLTQfakDNZHDpDIkyGGAyr6nlqYeMDAACAHSSLNbjwncWJOd+N0rx9S3GZe1GRwu9vWZAzqAj9l/3O4v8LEkLNmDGjQIECu3fvFoFEyZIlje8MCYS5oP/pp5/y58//9NNPS+WmTFsI5EgW9+zZM1i1fPly8VqM7zlplOM7qWrUqNGyZcv58+eLgOGzzz4rWLCg8Z7onEceP368XLlyEydO3LZtm4g8165dG1pLshgwZSFmvuD9j9USbC5QwbfL/fjjj2KpGTlyZLBxQ9u2bUOTxblfIsKtM+EeYnSF9Dm/BmMF27BhgzhArDDB8oceeqhhw///OT/ScxPHi0eJG6tWrRKP6tOnzzMhgp+GLBbYSZMmtW7d+tJLLxUrmNG46ULarFmz2rVrG7dNX0LkpxdQz6fYEaVJEshFsji0ox555BExqer8oWLFimJ32Lp1a+CPrW3o0KEXPDj7w1vz5cv3ww8/GHe912mhIkzOnOdazrkaecqFOyMCYSZwIMzz1Dug8UoWm76zWMuAfvXVV8WLF+/Xr59xN8KYGonX7du3B9sJ/klW6EVazoE2ynMmi0PHN8JkiMGwqp6nFjY+AAAA2EGyWIPQZHHz5s3Hz5E/567HkEfyZBs6bXjOoCL03/jZk1ObpAZbMxw+fPiKK64Ql9ply5YN/YIR0wv6QHaEUKZMGfGo0ELpriFcC1KyWAhWTZ48+bLLLgtWhcYeu3btEq/x3//+t3FX3BB3wyWLhWHDhlWrVk2UJycnS1UkiwFTFmLm0JRWwyapOT+IM/cL1IQ5U0I/iLNFixZVqlQJfS9bIGKyOPISYbrORHjI/v378+XLN2PGjOCjgowV7Mcff8ybN+97770XLK9fv37w/cvhUmP79u0TzeZ8Z5zkp59+qly5cp8+fQJmC+natWvz589v9Hy4lxD56QXU8yl2RG+SRE4Wh3aUmEhXXXXVPffc81KIa6655sknnzQOFvNNbIKh8+3o0aPly5cP/XHe67RQESan6SZrCM7VyFMu3BkRbgIHzJ6n9gGNV7K4YROTD6HO/YBOnPNChAEdP3584cKFv/7660DEMT148GCBAgXefvtt425mZqa4tMuZLA4KXZQC2cf06NEjWCuNb4TJEINhVT1PLWx8AAAAsINksQahyeJBgwb1fqqPFDZMX/OvghcVEle6Ja4paaSSp344rW6L+jkDjO4DevTt3zfYWtBDDz106aWXhgZsgewL+ho1anwewvjcOnHMZZdd1rJly88++yyQfZm+YMGCxMRE4+9YQ4VrQUoWiyDBiAx37twprvgfe+yxYFVo7HHo0KGCBQsa31P3ww8/NG3aVIQiEZLF33333UUXXVSkSJHgR/IFkSwGTFmImUNTWk/0f0IsMpYXqD7//IdY4oKtiRWmaNGiLVq0MP4e+fjx42LxMb5VyThAaYkwXWciPETo1KmTOPLTTz8NZC90H330kVEeXME6duxYtWrVXbt2iduvvfaaeGzwezXDpcaErl27litXLvhH1uJlLly4UNzYsWPHvHnzjA9W3rdvn/jRw4YNC2QvpDVr1tyyZYt4+cuWLXvqqafEct2gQQPjV3QRXkKEpxdQz6fYEb1JIiWLI3TUO++8ky9fPunTVwcMGFC6dGmjzzdt2nTJJZe0adPGyLKJfmvXrp0oEeXB473XaZJwk1Oaz+HmaoQpF+6MiDCBYzCg8UoW/+PJf9gZ0MeHPBFhQH/55RfRCcFMbrgxFbp16ybGbsWKFWJV7Nmz58UXXywli8MNtCCOr1279rfffvvTTz+JxTnnZVi4yRCDYVU9Ty1sfAAAALCDZLEGocnilStX1k9tkDNy6NbvfuMNKUL+AvnF/wULFcx5WEr9FNFCsLUg4ztD6tSpE1ooLuiDbRqaNWtmVH366aciMBAX9IULF86fP//VV18djB9ChWtBShaL4KR69erFixcXDTZs2DD4h4Q5Y4/nnnuuUKFC4seJwGDkyJEisImQLA5k53pEEHLw4EGpnGQxYMpCzBya0hLLy031U3KuPLlcoMTiJi1QYqlp0qSJWBkuuuiiggULitO/devWwaxHzhM/whIRbp0J95BA9pvjbr/99rx584pHiWOCn74aXMF2797doEED0WCxYsWKFCkS2hXhUmOB7Df03X333QUKFLjiiivEjxP/T5o0KZD9V+F//etfxQ8qXbq0eL3ilRqfqhxcSMViK56JePITJ04M/eVcuJcQ4ekF1PMpdkRvkkjJ4ggdJYYvNVX+wxrjfazz5s0z7q5bt+6mm24SI160aFHxf82aNUVJ6PHe6zRJuMkpzedwczXClItwRoSbwDEY0Hgli1esXGFnQBukNow8oKKjxLgYKddwYxrIfrPwHXfcIbpdFIrREePYq1evQMgSF26ghW3btomLRjHKebK/kDDnahxuMsRgWFXPUwsbHwAAAOwgWaxBaLL4+PHjTZs2fXbaqJzBQ88hj15+1RXBMKNiQiXpgCEvDUttnBr8rmr79u/fLwKJb775Rq6wZPPmzaEfbxfOgQMH0tPTg4meyEQQ8uCDD8qlJIuBMCzEzKH5ILG8NGzcUCw1FhaoZ18ZLRY30wXKOOs///xz04+7kUReIkzXmcgP2bt3r1jojPfHmcrIyBAHBHMoufTjjz+KR+3YsSP4MfEGo7V9+/aFFv6pCC8h3NNTzafYEYNJotG3334bbsR90mnhJqck3FwNN+UiiDCB7YswoPFKFovhaGB1QEe9OlZ1QAO5GFNRfu211xpv8ZaEG+jcsDAZcinCsKqepxY2PgAAANhBsliD0GSxkJaWViul1jsbZ+eMMT7YuvCFhS+PfW/8K8velKrE8Um1ksRjQ5vysO3bt0+ePLlAgQKh3/QdRLIYMGUhZpber7p06dLqNZMsLFBiWfPPAuUEqvkUOzwzSeg0j4lXslhYsnSJhQF9N332TSk36RrQ9evXv/DCC+np6R9//HHnzp2LFy9+4MAB+SAXUj1PLWx8AAAAsINksQZSsjiQ/fFtf7u99Z9+X3bwnziyRduW/fr//2/H9oPExMRKlSq9+OKLckU2ksWAKQsxs5TSEvo92U8sOEoLVOvb24hlTWoHUaWaT7HDM5OETvOYOCaLhb5P9m3etoXSgLZp31bjgG7atKlp06blypW77rrr2rdvv2XLFvkId1I9Ty1sfAAAALCDZLEGOZPFmZmZd9xxx99ub/1uusl7UqR/4piWbVt17to53N8e+hDJYsCUhZg5Z0pLLDWdu3Ru0bZVLheo1re3EQsaC1SMqeZT7PDMJKHTPCa+yWIxNJ3+b0Bb5m5A57Rp35YBzQ3V89TCxgcAAAA7SBZrkDNZHMiOMQYMGFDrplrDzT6/OPhv6EvDkmvVeLJ/f6KLUCSLAVMWYuacKa1A9gL1ZP8nk2slDzX7UM7gv2dfGSUWMbGUsUDFnmo+xQ7PTBI6zWPimywOZA9ov/79xICafn5x8N+IV0bXSmFAc0v1PLWw8QEAAMAOksUamCaLDWlpaU2aNKmfWr/XU30mzJnyxsdviaBC/D9+zuSegx6p27Buo8aNdH22nZeQLAZMWYiZTVNaBrH4iCWoTsO6YjkSi1JwgZrw/hSxZImFSyxfLFDxoppPscMzk4RO85i4J4sNxoCKa7YeAy8Y0Invv5A9oA0YUCWq56mFjQ8AAAB2kCzWIEKyOJD9ndorV64cNGhQ8xbNE6snlihRQvzfrHlzUSLKVb8v2ydIFgOmLMTMEVJagZAFqlnzZsEFSixWLFBxp5pPscMzk4RO8xiHJIsDDKhWquephY0PAAAAdpAs1iByshgWkCwGTFmImSOntOBYqvkUOzwzSeg0j3FOshgaqZ6nFjY+AAAA2EGyWAOSxdqRLAZMWYiZSWm5lGo+xQ7PTBI6zWNIFnuS6nlqYeMDAACAHSSLNSBZrB3JYsCUhZiZlJZLqeZT7PDMJKHTPIZksSepnqcWNj4AAADYQbJYA5LF2pEsBkxZiJlJabmUaj7FDs9MEjrNY0gWe5LqeWph4wMAAIAdJIs1GDdu3PTp00dCkxkzZpAsBkxZiJlHjx7NAuU6YhlUzafY4Y1JQqd5jBjQGCeLGdAYsHCeWtj4AAAAYAfJYg14Z7F2JIsBUxZiZt7/6FKq+RQ7PDNJ6DSPiXGyWP7xiA7V89TCxgcAAAA7SBZrQLJYO5LFgCkLMTMpLZdSzafY4ZlJQqd5DMliT1I9Ty1sfAAAALCDZLEGJIu1I1kMmLIQM5PScinVfIodnpkkdJrHkCz2JNXz1MLGBwAAADtIFmtAslg7ksWAKQsxMyktl1LNp9jhmUlCp3kMyWJPUj1PLWx8AAAAsINksQYki7UjWQyYshAzk9JyKdV8ih2emSR0mseQLPYk1fPUwsYHAAAAO0gWa0CyWDuSxYApCzEzKS2XUs2n2OGZSUKneQzJYk9SPU8tbHwAAACwg2SxBiSLtSNZDJiyEDOT0nIp1XyKHZ6ZJHSax5As9iTV89TCxgcAAAA7SBZrMG7cuOnTp4+EJjNmzCBZDJiyEDOPHj2aBcp1xDKomk+xwxuThE7zGDGgMU4WM6AxYOE8tbDxAQAAwA6SxRrwzmLtSBYDpizEzLz/0aVU8yl2eGaS0GkeE+NksfzjER2q56mFjQ8AAAB2kCzWgGSxdiSLAVMWYmZSWi6lmk+xwzOThE7zGJLFnqR6nlrY+AAAAGAHyWINSBZrR7IYMGUhZial5VKq+RQ7PDNJ6DSPIVnsSarnqYWNDwAAAHaQLNaAZLF2JIsBUxZiZlJaLqWaT7HDM5OETvMYksWepHqeWtj4AAAAYAfJYg3Gjh0rXwjDHtGlci8DsBQzk9JyKdV8ih2emSSxzC16ptOcLJYDSrI4ZlQXNwsbHwAAAOwgWazBK6+8smvXLvlaGFaJzhRdKvcyAEsxswjLjx8/Lp9mcDYxZKr5FDu8MUnoNI9hQD3JwrBa2PgAAABgB8liDU6fPj1gwADyxVqIbhSdKbpU7mUAlmLmdevWvf/++/KZhmw///yzXOQMYsjEwMljGTXemCR0mscwoKYyMzPlIlexMKwWNj4AAADYQbJYjzNnzkybNm0cbBPdKDpT7l8A2azFzHPnzpXPNIwbN2rUqMqVKz/xxBNyRbyNHDly9uzZ8ihGmdsnCZ2WGyVKlJCLnCouA/rBBx/Iz8NhxowZU7ZsWfG/XOESYlhnzZol9/ufsbbxAQAAwDKSxQDgGsTMen388ceJiYl79uyRKwAvKlGihFwEV/nqq69SU1PlUq9j4wMAAIgxksUA4BrEzNrNnj07JSXl0KFDcgXgOSSL3W7evHndu3eXS72OjQ8AACDGSBYDgGsQM0fDlClTmjVrFggE5ArAW0gWu93o0aPHjx8vl3odGx8AAECMkSwGANcgZo6Sf/7znx06dOCrNeFtJIvd7t577128eLFc6nVsfAAAADFGshgAXIOYOUrOnTvXo0eP7t27ixtyHeAVJIvdrnbt2rt375ZLvY6NDwAAIMZIFgOAaxAzR8/p06c7duz41FNPyRWAV5AsdrWTJ0+WL1/+7NmzcoXXsfEBAADEGMliAHANYuao+vXXX5s1azZlyhS5AvAEksWutnXrVrFAyaU+wMYHAAAQYySLAcA1iJmj7dChQykpKXPmzJErAPcjWexqs2fPfuSRR+RSH2DjAwAAiDGSxQDgGsTMMbB79+7ExMRVq1bJFYDLkSx2teHDh0+ePFku9QE2PgAAgBgjWQwArkHMHBtffPFFQkLC1q1b5QrAzUgWu9pdd921bNkyudQH2PgAAABijGQxALgGMXPMLF++vHr16t99951cAbgWyWJXq1Wr1r59++RSH2DjAwAAiDGSxQDgGsTMsfTuu+/WqVPnl19+kSsAdyJZ7F6//fZbhQoVzp07J1f4ABsfAABAjJEsBgDXIGaOsfHjx7dq1eq3336TKwAXIlnsXlu2bGnRooVc6g9sfAAAADFGshgAXIOYOfb69evXtWvXM2fOyBWA25Asdq/Zs2c/9thjcqk/sPEBAADEGMliAHANYubYO3v27L333turV6+srCy5DnAVksXuNXz48ClTpsil/sDGBwAAEGMkiwHANYiZ4+LUqVNt2rQZOXKkXAG4Csli97r77rs/+ugjudQf2PgAAABijGQxALgGMXO8ZGZmNmjQ4M0335QrAPcgWexeKSkp3333nVzqD2x8AAAAMUayGABcg5g5jr7//vvk5OQlS5bIFYBLkCx2qZMnT1aoUOHcuXNyhT+w8QEAAMQYyWIAcA1i5vjasWNH1apVP/30U7kCcAOSxS61devW5s2by6W+wcYHAAAQYySLAcA1iJnjbt26ddWqVfvmm2/kCsDxSBa71Jw5cx555BG51DfY+AAAAGKMZDEAuAYxsxPMnTu3Vq1aBw8elCsAZyNZ7FIjRoyYNGmSXOobbHwAAAAxRrIYAFyDmNkhXnrppaZNmwYCAbkCcDCSxS7197//PS0tTS71DTY+AACAGCNZDACuQczsHEOGDOnQocPp06flCsCpSBa7VJ06dfbs2SOX+gYbHwAAQIz9v/buBS7qKv//eKCSqK2WueItkbymgxdQVLyAeGlNLTHvVm6ul1oNN81Lm5qmkpaotJluWVZe0qjAu0mWxqWyNB+RFG2KPwOtFJ3MdSHB/4nvv2/jGWZyviNf5sy8ng8ePYZzzvd78Pvhe76P824cCYsBQBnsmT1HcXHx+PHjJ02aVFJSIvcBHomwWEWXLl1q0qTJ5cuX5Q6fwYMPAADAZITFAKAM9swepbCwcPDgwfPmzZM7AI9EWKyirKys6OhoudWX8OADAAAwGWExACiDPbOnsVqtUVFRa9askTsAz0NYrKK33357woQJcqsv4cEHAABgMsJiAFAGe2YPlJeXFxYWlpycLHcAHoawWEVLlix59tln5VZfwoMPAADAZITFAKAM9syeKTs722KxpKenyx2AJyEsVtG4ceNSUlLkVl/Cgw8AAMBkhMUAoAz2zB4rPT3dYrEcPXpU7gA8BmGxirp3756dnS23+hIefAAAACYjLAYAZbBn9mTJyclhYWF5eXlyB+AZCIuVU1RUFBwcXFhYKHf4Eh58AAAAJiMsBgBlsGf2cGvWrImKirJarXIH4AEIi5WTk5MTGRkpt/oYHnwAAAAmIywGAGWwZ/Z88+bNGzx4sI+/ExCeibBYOdu3bx87dqzc6mN48AEAAJiMsBgAlMGe2fOVlJRMnDhxwoQJxcXFch9QoQiLlbN8+fL4+Hi51cfw4AMAADAZYTEAKIM9sxIKCwtjY2PnzJkjdwAVirBYOQ899FBSUpLc6mN48AEAAJiMsBgAlMGeWRVWqzU6OvqFF16QO2x8//33Fy9eLCgo+OCDD7777jutMTs7OzMz83//+5/tyNzcXDHmyy+/tH23snb4+fPn9+/ff+LECZvhZY8Xfvrpp7S0tGPHjon2kydP6r2XL1/+7LPPxLwXLlywHZ+Tk7Nv375Dhw4VFRXZtkNRWljML55CYmJijhw5csW3q8aDDwAAwGSExQCgDPbMCsnPzw8PD3/nnXfkjt+0bdv2r3/96+23396xY8eAgAAxUnwbGhrauHFj8d+LFy9qw8aOHdukSZNevXoFBweLE549e1Y/fPz48eLwiIiIqlWr/utf/3I+Xvza3HzzzWKuli1bTpw4Ufwi/fjjj6L9q6++atasmWjs1q1bnTp1du3aJRqLi4uHDBlSv379Pn36tGvXrm/fvtpJoDQtLOYXTxXiaoSEhGgV8eWq8eADAAAwGWExACiDPbNasrOzLRZLWlqa3FGqbdu24eHhP//8s3i9YMGCwMDAhIQE8fp///tf06ZNX375ZW3YyZMntRfFxcWxsbGzZ8/WD2/Xrt1PP/0kXiclJd10003aW//KHP/LL780adLkmWeeuVL6qcr33Xeflv6I1507d9Y/MSMlJaVu3boXL148cuRI9erV9QTKarVqL6A0PSzmF08Jubm5olLaa1+uGg8+AAAAkxEWA4Ay2DMrJyMjw2KxHD16VO4ojW8SExO11x988IG/v7/+18nHjBkzc+ZM7XVJSUlqaurKlSufeuqpQYMG9evXTz9cNGqvz507J34xtL+cXub4rKwsPz+///73v9r4gwcPaunPsWPHxIv9+/cf/k3NmjU/+uijkydPBgQELF68OCcnRzsEXkAPi/nFU8LevXtHjhypvfblqvHgAwAAMBlhMQAogz2zilJSUsLCwvLy8qT2tm3bvv7669rrzMzM6tWr613jxo2Li4vTXg8cOLB9+/ZPPvlkYmLiqFGjIiIitHbbwy9duiR+Mb755htH4/fv31+jRg1tsHD8+HEt/RHt/v7+/a6WkZEhxuzZs+fOO++sVq1aSEjI5s2b9WOhLj0s5hdPCatWrZo3b5722perxoMPAADAZITFAKAM9syKWrNmTVRUlPS3s68l/fn222/9/f21vzwuzJkzx3n642h8bm6uGJCfn6+179mzR0t/tHb938uyV1hYmJiYWKVKFf2cUNe1h8WOfpGu8ItnoqlTp65fv1577ctV48EHAABgMsJiAFAGe2Z1zZs3b/DgwYWFhXrLtaQ/J06cEBX/4osvxOtvvvmmbt26ztMfJ+Ojo6OHDRt29uzZ3NzcyMhILf0R7b169Ro6dKj2WaglJSX79u27fPmyGPP1119rB6anp1eqVOnChQvat1DXtYfFTn6R+MUzzV133fXJJ59or325ajz4AAAATEZYDADKYM+srpKSkokTJ06YMEH7d6WuXFv6I0ybNi0wMLBVq1ZNmzadOnWq8/THyfhTp07dddddNWrUaN68+b///W8/Pz9xlGjPz88fMGCAaG/RokWtWrXatWtXVFSUnp5+8803N2zYsHXr1uLFCy+8oJ0ESrv2sPiK418kfvFMI67YuXPntNe+XDUefAAAACYjLAYAZbBnVlphYWFsbOzcuXPljj/yww8/fP3115cvX5Y7HPjD8Zs3b27UqJFty4ULF7KzswsKCvQWcfjx48fFebSQCF5AC4uv3R/+Ikn+cDy/eNfu1KlTFotFbr0Gf1gFyR+Or/Cq8eADAAAwGWExACiDPbPqrFZrVFTU6tWr5Y7yl5KS8swzz2zbtm3lypV16tRJTEyUR8DbuRoWXxf84hlz4MCB2NhYudUsHlU1HnwAAAAmIywGAGWwZ/YC+fn5YWFhycnJckc5O3r06NSpU4cMGTJhwoStW7fK3fABFRIW84tnzNq1a2fNmiW3msWjqsaDDwAAwGSExQCgDPbM3iE7O9tisaSnp8sdQHmqkLAYxsyaNWvt2rVyq0/iwQcAAGAywmIAUAZ7Zq+Rnp5usViys7PlDqDcEBYrJDY29sCBA3KrT+LBBwAAYDLCYgBQBntmb5KcnBwWFpafny93AOWDsFghFovl1KlTcqtP4sEHAABgMsJiAFAGe2Yvs3r16qioKKvVKncA5YCwWBXnzp1r3ry53OqrePABAACYjLAYAJTBntn7zJ07NzY2trCwUO4ArjfCYlV88sknd911l9zqq3jwAQAAmIywGACUwZ7Z+xQXF0+YMGHixIklJSVyH3BdERarYv369VOnTpVbfRUPPgAAAJMRFgOAMtgze6XCwsLBgwfPmzdP7gCuK8JiVYjVYNWqVXKrr+LBBwAAYDLCYgBQBntmb2W1WqOiotasWSN3ANcPYbEqRo4cuXfvXrnVV/HgAwAAMBlhMQAogz2zF8vLywsLC0tJSZE7gOuEsFgV4eHhubm5cquv4sEHAABgMsJiAFAGe2bvdvToUYvFkpGRIXcA1wNhsRIuXrwYEhJSXFwsd/gqHnwAAAAmIywGAGWwZ/Z6aWlpFoslOztb7gDcRlishCNHjsTExMitPowHHwAAgMkIiwFAGeyZfcE777wTHh6en58vdwDuISxWQlJS0kMPPSS3+jAefAAAACYjLAYAZbBn9hEvvPBCdHS01WqVOwA3EBYrIT4+fvny5XKrD+PBBwAAYDLCYgBQBntm3zFnzpzY2NjCwkK5AzCKsFgJY8eO3b59u9zqw3jwAQAAmIywGACUwZ7ZdxQXF0+YMGHixIklJSVyH2AIYbESIiMjc3Jy5FYfxoMPAADAZITFAKAM9sw+pbCwcPDgwfPmzZM7AEMIiz2fuOuDg4OLiorkDh/Ggw8AAMBkhMUAoAz2zCo6ceLE+0bt2LGjY8eOjz32mNxRlvT0dD62Ak4QFnu+7Ozs7t27y62+7X0efAAAAOYiLAYAZbBnVs7ChQsrVap0gxvE4XXq1KlatarcUZZatWrNmjXr0qVL8s8BEBarICUlZdy4cXKrb+PBBwAAYDLCYgBQBntmtZw+fbpSpUpjxozR3vlr2KuvvtqiRYvnn39e7rhacnLyyJEjxYwxMTHyjwIQFqvg2WefXbJkidzq297nwQcAAGAuwmIAUAZ7ZrWkpaWJeqWmpsodrktPT7dYLNnZ2XKHnZdffllMunPnTrkDPo+w2PNNmDDh7bffllt9Gw8+AAAAkxEWA4Ay2DOr5frWKzk5OSwsLC8vT+64WlFR0a233jp69Gi5Az6PsNjzRUdHZ2Vlya2+7foupAAAAPhDhMUAoAz2zGqxr1dOTs7BUocOHcrOzj537tzvo0sdPnxYG2Dv1KlTa9asiYqKOnv2bGZm5oYNGzZu3Pjpp58WFxdLJ5k0aVKNGjUuXrwotcPHERZ7uMuXLzdp0oTPHJfYL6QAAAAoV4TFAKAM9sxqsa9Xv379brhas2bNEhMTS0pKtAE1a9aUBuji4+PFgNGjR9erV8/Pz09vb968+f79+/UpBPGtaN+0aZNtI0BY7OG+/fbbzp07y60+z34hBQAAQLkiLAYAZbBnVot9vbSwuHLlyhEREcHBwf7+/lrgO3z4cC0v7t27d0SpevXqaV0dOnTQWl577bWdO3f6+fnVqlXrz3/+84MPPnj//fdXr15djLnxxhs//fRTfRZxqkaNGg0aNEhvAa4QFnu8Xbt2iZtabvV59gspAAAAyhVhMQAogz2zWuzrpYXFtWvX1r49duxYly5dtFB4w4YN+jBh2rRpWvupU6f0xhYtWoiW6tWr9+/ff86cOaLl448/1hLn6Ojo3w++cmX69OkBAQEFBQW2jfBxhMUebsWKFQsXLpRbfZ79QgoAAIByRVgMAMpgz6wW+3pJYbFw/PhxLRTu37+/3nilrLA4JydHaxk7dqzVau3Vq9eqVauu/HZOf39/0agffujQIdH44osv6i0AYbGHe/jhh7ds2SK3+jz7hRQAAADlirAYAJTBnlkt9vWyD4uFBg0aiMamTZvaNtqHxXv37tVann76afGtaA8PD3/rrbfi4uK09qysLNsztGzZUnq7MXwcYbGH69279+effy63+jz7hRQAAADlirAYAJTBnlkt9vUqMyy+5ZZbRGOrVq1sG+3D4n379mktCxYs0Fq+/vpri8UyZMgQrT07O/v3469cmT9/fqVKlfLy8mwb4csIiz1ZcXFxSEjIxYsX5Q6fZ7+QAgAAoFwRFgOAMtgzq8W+XvZhcVpamhb1jhgxQm+8UlZYnJeXp7UMHjxYH/bRRx81aNCgSpUqN95446VLl/T2K799bEVCQoJtI3wZYbEnO3bsWKdOneRWlLWQAgAAoFwRFgOAMtgzq8W+XrZh8ZkzZ5KSkho2bKhFwPv379eHXSkrLBa6desmWipVqpSamqq1rF+/vmrVqnXq1Bk0aJA+TNexlNwKX0VY7Ml27949ZswYuRVlLaQAAAAoV4TFAKAM9sxqsa+XFhZrga/2QvDz81uyZMnvh5UqMyw+cuRIjRo1tMPDw8Pbtm0rjhXf1q1bNyIioqCgwOYEv0pISBC9OTk5Ujt8E2GxJ0tMTNQ/YQa27BdSAAAAlCvCYgBQBntmtdjXSw+L/fz8qlWrdvvtt48cOTItLe33Y35TZlgsZGVliZPoWXNAQMCQIUNOnDixaNGigQMHSp9EkZeXJ0bOnz/fthE+i7DYk02ePHnz5s1yK8paSAEAAFCuCIsBQBnsmdVSfvX66aefsrKyvvzyS/2fwyopKZkyZcoDDzxw+fJl25HR0dEtW7a0bYHPIiz2ZH369Dl8+LDcivJcSAEAAFAmwmIAUAZ7ZrWYXK+ioqIRI0ZMnz7dtvHFF18UP8OhQ4dsG+GbCIs9VnFxcUhIyM8//yx3wPSFFAAAAITFAKAM9sxqMb9eP//8c79+/ZYtW6a3FBQUBAQESAkyfBNhscfKzc0NDw+XW1HK/IUUAADAxxEWA4Ay2DOrpULq9eOPP3bu3HnDhg16y6BBgxo1alRSUmIzCr6IsNhj7dmzZ/To0XIrSlXIQgoAAODLCIsBQBnsmdVSUfU6duxY27Zt3333Xe3bTZs2iR9j//79V4+CzyEs9lgrV65csGCB3IpSFbWQAgAA+CzCYgBQBntmtVRgvT7//PPWrVt/+umn4vXFixdr1KgxadIkeRB8DGGxx3r44Yc3b94st6JUBS6kAAAAvomwGACUwZ5ZLdu2bRP1Wr58+fsVYcWKFS1btty4caN43bt375o1a27fvl0eBF8SFBQkN8EzRERErF27Vm71PJmZmZcuXZJXunL2Pg8+AAAAcxEWA4Ay2DOrZfny5TdUqMDAwDp16vj7+8sdN9zg5+cnN8HbBQUFyU3wDHXr1lXllqxatWpCQoKZn4HOgw8AAMBkhMUAoAz2zGrZvn27qNeKFSs+qDj/+Mc/IiIitm3bJn4M23cWP/XUU/preKsNGzbYfiu9s1jqhWmWLl1q++3GjRtDQ0NtWzzWrl27hg8fLpa1hIQEeb0rN+/z4AMAADAXYTEAKIM9s1o8pF7//Oc/77333sLCQtvGBx54wPZbeKXVq1dnZGTo39p+ZrFoF736tzBTUlKS7ScUb9++Xa37cdiwYYGBgaZ9HoWHLKQAAAC+g7AYAJTBnlktHlKv4uLi8ePHT5w4UbzQGxs3bvzTTz/ZjIIXOnPmzB133KHnxXpYnJ6eLtpF7+9DYSJx67Vo0eLLL7/Uvl22bFl8fLz2+uTJk+vXr/99qEfauXOnWNkyMzPljvLhIQspAACA7yAsBgBlsGdWi+fUq7CwcMiQIU888YTeEhQUtHbtWpsh8E6i7iEhIVperIXFaWlpjRs3njZtmjwUJhozZkybNm3++9//itfjx49/++23i4qKVqxY0apVqxMnTsijPYzJK5vJ0wEAAICwGACUwZ5ZLR5VL6vVGhMTk5iYqH0bFBQUHR199RB4oU2bNolaN2/ePCMjQ7xIS0tr1KhRvXr1cnJy5KEwUVJSkijH6NGjxesePXqsW7euS5cuomXp0qXyUM9j8spm8nQAAAAgLAYAZbBnVoun1ev06dOdOnXSPiw1KCioYcOGfBKFL2jatGlERESbNm1E0Rs3btyyZctRo0bJg2Auces1KLV06VLx37CwsGbNmnXs2PGXX36Rh3oek1c2k6cDAAAAYTEAKIM9s1oqtl6//PLLp59+unXr1qNHjxYVFWmN3377bWho6HvvvRcUFFSvXr1XXnnlqmPgjebPny/KPWzYsMaNG4sXHTp02L9/vzwIphswYIAW34vSNGzYMDg4WNyw8iCPZPLKZvJ0AAAAICwGAGWwZ1aLJ9QrJydn+vTpISEhXbt2ve+++5YsWbJy5cp27doFlerVq5d8ALxOUVFRw4YNtYq3bNkyKipKHoGKsHHjxvr162t1adKkydSpU+URnsrklc3k6QAAAEBYDADKYM+sFs+p19mzZ5944okmTZpoyVSjRo20F3wShY948MEHtYp37dp106ZNcjcqgrj1bEN8q9Uqj/BUJq9sJk8HAAAAwmIAUAZ7ZrV4Wr0KCwtfeuml0NBQPaKqX7/+unXr5HHwOqdOnapXr95tt91msVjEr4HcjQrStWtXcRu2aNEiJSVF7vNgJq9sJk8HAAAAwmIAUAZ7ZrV4bL1SU1NjYmK0yFi8kLvhje68884GDRokJCTIHag4CxcurF+//tChQ+UOz2byymbydAAAACAsBgBlsGdWi4fXKycnZ8yYMcHBwXwShS84ePBgs2bNzpw5I3eg4nz//fe33377iRMn5A7PZvLKZvJ0AAAAICwGAGWwZ1aLgXpZrdZnn3326aefjjfL3FJyq5cSF1ZcXtM+HFZMtGzZMjOr6dyUKVPkpoogLoi4LD5bBUlcXJzcZCJjtTCwsrnD5OkAAABAWAwAymDPrBYD9Vq2bNnJkyetKDfi8oqLLF/38pGQkEA1yyQui2kfiME95ZyBO8LAyuYOk6cDAAAAYTEAKIM9s1oM1Cs+Pl7OcnC9iYssX/fyQTWdoAqew9VaGFjZ3GHydAAAACAsBgBlsGdWi4F6LV68WA5ycL2Jiyxf9/JBTOmEqwGlYdxTf8jVO8LAyuYOk6cDAAAAYTEAKIM9s1oM1ItgywSuRmOGERY7QVjsOVy9IwysbO4weToAAAAQFgOAMtgzq8VAvZwHW+fPn383dW/c9Kk9evVobWkdFBTU2tKmZ6+e02c+lpqaKnrlA1AWV6Mxw5yHxVo1p15VzdaimtNmTPeFanpIWCyu8175nvq1Cj51T7l6RxhY2dxh8nQAAAAgLAYAZbBnVouBejkJtrZu39qlR9fwyI5/mzlx2ZaVa9979a0jW8V/xWvR0ikyokdUj127dsmHwY6r0ZhhTsLibTu2de0R6bianbr37O7d1fSEsHjrjj+4p7y+ChpX7wgDK5s7TJ4OAAAAhMUAoAz2zGoxUK8yg62CgoLJj04JDQuds2r+W0e2OvoSve3C28+YMUOMl08BG65GY4aVGRaL6jwyLS40rO01VLPdYzMe89ZqVmxYLK7qlEcfubYqtPfiKmhcvSMMrGzuMHk6AAAAEBYDgDLYM6vFQL3sg62CgoK7770nZmDvDZmb7cMs6UuM6Xt3v+Ejhnt3tuUmV6Mxw+zDYlGXe4YOvvZq9hnUd9iIYV5ZzQoMi12+pwZ5+T3l6h1hYGVzh8nTAQAAgLAYAJTBnlktBuplH2xNfnRyzMDebx5Otg2wkj5Pefxfc+/5a2zfe+8c8ffRz25ZoXeJkf3uvnPGjBnSeaBzNRozzD4sfmTaI65Ws+/d/byymhUYFk9+dIqrVfDue8rVO8LAyuYOk6cDAAAAYTEAKIM9s1oM1EsKtlK2p4SGha7PuOr9j+v2b2jRtuUNNqoEVLEdIMZ36NihzM9aPXPmzJ49e1588cVNmzZ9/PHHcve1efLJJ1955RW51aj4+PjVq1fLreXJ1WjMMCks3rZjW2hYWwPVbB8uV/OLL774oFR6evqJEydsu1RRUWHx1h1br9c9ZVuFY8eO2XYZY/69oHH1jjCwsrnD5OkAAABAWAwAymDPrBYD9bINts6fP9+1R1f7z1Tt0C1My7OatAjpHdu3maW5FGyJr3mrFkRHR4sz2CRC1jfeeKN+/frVqlXr0KFD+/btAwMDW7duvXfvXtsx16Jnz55Tp06VW40aMmTI5MmT5dby5Go0ZphtWCxqEdkz0lg1566aHxUdZVvNUaNGVa5c+ZZbbrnpppvEsVFRUTk5OXqvEiokLP71njJaBft7Sq/Cn/70J3Fs586ds7Ky9F4DruVe+Nvf/jZ//ny51T2u3hEGVjZ3mDwdAAAACIsBQBnsmdVioF62wdbud3eHR3aUEqulmxK0VKvbX3okfZ6iNc5c/rg0THx17R6Zmpqqn23Hjh2VKlWaMmXK6dOntZbvv/9+6dKlzz33nD7mGl3fsNh8rkZjhtmGxe/ufdedanbp3tW2mqNGjerWrZv2+uOPPw4KCrrnnnv0XiVUSFi8Z+8ed6rQ1XEVDh8+fNttt/Xr10/vLSdiioceekhudY+rd4SBlc0dJk8HAAAAwmIAUAZ7ZrUYqJdtsDVl2iPjZ06U4qoRD4/Sgq1VO/5tH2bZfk1+/JHZs2frZwsLC9ODrTLNmTPnpZdeWrZsWURExH333Sdadu/ePWrUKHGgaJkyZcr//d//aSO1sPjpp58ODw8XXc8//7x+EkeHaJKSkv7yl7+0bt26R48eCQkJWuPChQv1M4gX4ods06bNiBEjDh8+rB8ofra1a9euXLmyU6dOkZGRtjMKW7Zs6devn8Viueeeew4cOKA1ZmZmDh06NDQ0tGPHjmPGjLF9462r0ZhhtmFx3PSp7lTzodl/t62mbUwpPPLII3Xr1tW/LfOC2NfX0SUyUAVHdXc0hbWCwuJHpse5U4W/Pz7FSRXETVG7dm39W6uDQgjnzp2bP39++/btu3Tpsnr16meffVZcVevV90KZl07cNfXq1WvatGlsqa+++sq+rFYHFSzzhBpX7wgDK5s7TJ4OAAAAhMUAoAz2zGoxUC/bYKtbVLdlm1dKcVW3O7uLc9aqXcs+yZK+xLG9e/fWTnXs2DFxlBZIOdKzZ8/69evfdddd69ate/PNN62lEdLChQuTk5M3btzYuXPnrl276iPr1q179913v/XWW/Pnz69SpcpLL72kdTk6REhMTBQjp02blpKSsnbtWv29yWLG8ePHixdLliwJDAyMj48Xp+3fv3/t2rVzc3O1MWLGBg0aDBkyZNOmTfPmzfP399+6davW9fzzz1evXl38GKJl1qxZ4gwZGRk//PBDnTp1xo0bt337dvFnmTFjxqFDh7TxVtejMcNsw+Lu0d3drGZMTIx+NimmHDNmTEhIiPa6zAtitauvo0tkrApl1t3RFJoKCYu7Rbldhd4OqyDuiGbNmunfOiqEIL6tWbOmuB+TkpLETSrupvvvv99qcy84unQffPBBu3bt+vXr91qpvLw8+9u2zAo6OqHG1TvCwMrmDpOnAwAAAGExACiDPbNaDNTLNti6o80da/e9JsVV7SM7iHPe1rSxfZIlfYljQ0NDtVOlpaWJo5KTk/WTv/HGG1retGfPHq2lZ8+eLVu2lD7mWKfFzQcPHrSWjgwODj537pzWFRcX17x586tGl7I95MyZMzfffPPjjz8uD/otIDt79mytWrWeeuoprVF826hRoxkzZmjfihnbtWun/2wxMTFapiaG3XrrrUuXLtXahdGjR997772HDx8WU2dnZ+vttlyNxgyzDYvvsLR2s5qWUIt+tlGjRlkslt27d+/YsWPu3LmVK1eeOXOm1fEFsdrVt8xLZKwKEr3uZU6hq5Cw2P17yvLbPWUtrYK4EcTlevLJJ++5556AgIBXX31V63JSiB9++KFGjRqJiYla++nTp2vXri2FxU4unfQxFFJZHVXQyQmtrt8RBlY2d5g8HQAAAAiLAUAZ7JnVYqBetsFWw0YNt3z2jhRXhffoKM5ZP7iBfZIlfYljGzVqpJ0qIyNDHJWUlKSfXAv+atWqpX/KqmgZN26cPkD49ttvH3300e7du7du3bpVq1Z+fn7aGcTIBx54QB+WnJwsurSPQnZ0iPYD6O+stKUFZFqYlZmZqbffd999d955p/ZazGgbkImfc+DAgdbSv1kvjnrwwQdnzZo1c+bMGTNm9OrVS0x99uzZO+6447bbbouLi0tJSTlz5ox+rNX1aMww27D4OlbTWhpTBgQE1K9fX/wZu3TpsmTJEvFHtjq+IFa7+pZ5iYxVweqg7mVOoauQsPi6V+GWW24Rv8AxMTE1atTo37+//md0UoiDBw+KLts39vbp00cKi51cOvuw2Lasjiro5IRW1+8IAyubO0yeDgAAAITFAKAM9sxqMVCvP3wXZO/YvuKcNwZWffNwsn2YZftl+87ivLy8SpUqLVq0SD+5ZtCgQbZhsfTP1nXo0KFv377vvPNORkbGJ598UqVKlQ0bNmgjJ02apA979913xY90/PhxJ4dol8L2A3B1WkCWnp4uBhw5ckRvnzBhQvfu3bXX0s8mxoujxIt9+/aJo+Li4p60oX0acn5+/ooVKwYMGHDTTTcFBwfbntnVaMywP3xnsUvVlN5ZXOYnUDu5IPb1tb9ExqpgdVx3+yn0wyskLL7Dct3uKevVVfjyyy9r1649ffp07VsnhdD+x8kXX3yhn6d///5SWGx1fOnsw2LbojipoKMTWl2/IwysbO4weToAAAAQFgOAMtgzq8VAvWyDrTI/5XbinIdvKDV39QL7MMv2a/mWRP0zi62l715s1aqV9I5CJ2FxTk6OmOWzzz7TvhUvxLd6WCzoI1euXPmnP/3J+SEnTpzw9/dft26dfpROC8jy8vL8/Pw2btyot0dGRurvX3YUU+bm5orTvv7663qXvfz8/ObNm8fFxektrkZjhtmGxT2ie7hTzWVbVsbYVNNRWOzkgtiHxTr9EhmrgpO66+yrUCFh8fW9p6QqLFu2rGrVql999ZXVaSFOnTpVuXLl1157Tfu2oKCgYcOG9mGxTrp0YszEiRP1Xqkoziuosa+Fq3eEgZXNHSZPBwAAAMJiAFAGe2a1GKiXbbD1j8ceHT9zohRXvfLB61VuDBCnDbqt3rItv8Ze/9q2ukufSPtga+qcR2fPnq2f7ZNPPqlRo0afPn20z4I4f/78Z599pv1jWdoAKXU6ffp0lSpVli9fLl5/9913vXr18vPz08PiSpUqaa+PHj3apEmTyZMnOz9EGDp0qBj50UcfWUv/lv3u3bu1dj0gu/fee9u0aZOTkyNev/jii+LYffv2aWMcxZTCiBEjgoOD9Q+4EH/MlJSUrKyst99+W/tU5dzcXDHv/Pnz9cNdjcYMsw2Lp82c7k41H/lnnG01HYXFVgcXxGp3DR1dIgNVcFR3R1NoKiQsftS9eyruiX84qcKPP/7YoEEDPcl1VAhh7Nix4mrs3btX3D6TJk2qVq2aFBY7uXRifERExDfffJOfny/uYvv/B1BmBZ2c0Or6HWFgZXOHydMBAACAsBgAlMGeWS0G6mUbbKWmpnaM7GSfWI2d/qD2RkihUuVK4r9VAqrYD+vWo5s4g3424aOPPoqOjvb397/xxhurVKkSEBAwYMAAPcyyT52eeeYZMaZu3brVq1dftGhRtWrV9LD4/vvvb9u2be3atcXZunfv/t133zk/xFr6nsfBgwf7+fmJo8QY/ZNw9YDsP//5T7du3cQJa9asGRgYaJu0OoopraXv0xwzZkzlypVvvvlmMZ3474oVK8Qf6s9//rOYpUGDBuIPK/6Y2kcqa1yNxgyz/SOIWnSKjLAv0zVWM7JHpG01nYTFZV4Qq901dHSJjFWhzLo7mkJTIWHx9b2n7KuwfPly8SfV/h05R4Wwlr63d+TIkeJaiUZxScWVmTJlitXmXnBy6Y4cOdK5c2dRmhtK/xVB+9u2zAo6OaHV9TvCwMrmDpOnAwAAAGExACiDPbNaDNTLNtg6f/5896juc1bNtw+tJs35e61bb9bjrdtbN5UGLP7307169RJn0M+mO3nyZGZm5sGDB3/44Qe5z442WM+CJYcOHbL95FON80OOHz+ekZGhve2xTNnZ2WKAbZJ1LfLy8sRRWVlZBQUFeqN2qtzcXJuBv3I1GjPMNmkVtegR1cNYNResXuSomo6UeUHsObpEBqrgqO6OpqiQsLj0njJYhYVr4l2tgvUaCiHaGzdurL0vW+Lo0l2LMivo6ISu3hEGVjZ3mDwdAAAACIsBQBnsmdVioF62wZawY+eOtmHt1mdsts+2kj5PeS7lhSUbl63Z87LUtSFzc3injrt27bI9FXSuRmOG2YbFgqhIu3CXqynGh3cM975qVkhYLOzcudPIPSWq0Om6VeHDDz987rnnMjMz33vvvWHDhtWuXfvkyZPyIBO5ekcYWNncYfJ0AAAAICwGAGWwZ1aLgXpJwZYw7bFpvQf1efNwsn22VeaXGDkwduDMmTOl80DnajRmmBQWC9NnPNZnUF+Xqjlg8ACvrGZFhcXWX6sw3fUqXM976uOPP+7Vq1dwcHCzZs1iY2MPHz4sjzCXq3eEgZXNHSZPBwAAAMJiAFAGe2a1GKiXfbBVUFAwdPjQPoP6bsgs472Q0teGzC0DYweOHDnS0d95h9X1aMww+7BY1GXYiGF97+53bdXcPGDwAG+tZgWGxb9WYfiwPoOuvQpefk+5ekcYWNncYfJ0AAAAICwGAGWwZ1aLgXrZB1vW0mxr+ozH2oe3L/OzVvWvp9bEh3cKnzlzphenWteFq9GYYfZhsbW0mo/NmNE+vMNcp9VcsHpReEdvrmYFhsXW/1+FX+8p51V4as1iX7inXL0jDKxs7jB5OgAAABAWA4Ay2DOrxUC9ygy2NLt27eoZ1bNL9y4TZz28bMvKte+9+taRreK/y998bso/4yJ7dIuOjr5en6nq3VyNxgwrMyzW6NWcdHU1E7YkTvnnI5E9Ir2+mhUbFmu0KnQWVZh9dRXe9JUqaFy9IwysbO4weToAAAAQFgOAMtgzq8VAvZwEW8L58+dTU1Nnz54d0zsmtG1oUFCQ+G/vPr1Fi2gXvfIBKIur0ZhhTsJi61XV7O2D1fSEsNjKPVXK1TvCwMrmDpOnAwAAAGExACiDPbNaDNTLebCF68LVaMww52Gxj/OQsBhW1+8IAyubO0yeDgAAAITFAKAM9sxqMVAvgi0TuBqNGUZY7ARhsedw9Y4wsLK5w+TpAAAAQFgMAMpgz6wWA/Ui2DKBq9GYYYTFThAWew5X7wgDK5s7TJ4OAAAAhMUAoAz2zGoxUC+CLRO4Go0ZRljsBGGx53D1jjCwsrnD5OkAAABAWAwAymDPrBYD9Vq8ePErr7yyCOVm3bp1rkZjhsXHx1PNMokqmBkWUwUnDNwRBlY2d5g8HQAAAAiLAUAZ7JnVYqBevAvSBK5GY4bxzmInzAyL5blxNVfvCAMrmztMng4AAACExQCgDPbMajFQL4ItE7gajRlGWOwEYbHncPWOMLCyucPk6QAAAEBYDADKYM+sFgP1ItgygavRmGGExU4QFnsOV+8IAyubO0yeDgAAAITFAKAM9sxqMVAvgi0TuBqNGUZY7ARhsedw9Y4wsLK5w+TpAAAAQFgMAMpgz6wWA/Ui2DKBq9GYYYTFThAWew5X7wgDK5s7TJ4OAAAAhMUAoAz2zGoxUC+CLRO4Go0ZRljsBGGx53D1jjCwsrnD5OkAAABAWAwAymDPrBYD9SLYMoGr0ZhhhMVOEBZ7DlfvCAMrmztMng4AAACExQCgDPbMajFQr8WLF7/yyiuLUG7WrVvnajRmWHx8PNUsk6iCmWExVXDCwB1hYGVzh8nTAQAAgLAYAJTBnlktBurFuyBN4Go0ZhjvLHbCzLBYnhtXc/WOMLCyucPk6QAAAEBYDADKYM+sFgP1ItgygavRmGGExU4QFnsOV+8IAyubO0yeDgAAAITFAKAM9sxqMVAvgi0TuBqNGUZY7ARhsedw9Y4wsLK5w+TpAAAAQFgMAMpgz6wWA/Ui2DKBq9GYYYTFThAWew5X7wgDK5s7TJ4OAAAAhMUAoAz2zGoxUC+CLRO4Go0ZRljsBGGx53C1FgZWNneYPB0AAAAIiwFAGeyZ1WKgXosXLz5//ryc5eD6EZfXtLCYajpCFTyHgVoYWNncYfJ0AAAAICwGAGWwZ1aLgXodOHDgzTfflOMcXD/i8oqLLF/38kE1HaEKnsNALQysbO4weToAAAAQFgOAMtgzq8VYvZKSkpaifCxatOiNN96Qr3h5euutt+QfwueJKmzevFm+UuWJKjhirBbGVjbDTJ4OAAAAhMUAoAz2zGqhXgC8j8krm8nTAQAAgLAYAJTBnlkt1AuA9zF5ZTN5OgAAABAWA4Ay2DOrhXoB8D4mr2wmTwcAAADCYgBQBntmtVAvAN7H5JXN5OkAAABAWAwAymDPrBbqBcD7mLyymTwdAAAACIsBQBnsmdVCvQB4H5NXNpOnAwAAAGExACiDPbNaqBcA72PyymbydAAAACAsBgBlsGdWC/UC4H1MXtlMng4AAACExQCgDPbMaqFeALyPySubydMBAACAsBgAlMGeWS3UC4D3MXllM3k6AAAAEBYDgDLYM6uFegHwPiavbCZPBwAAAMJiAFAGe2a1UC8A3sfklc3k6QAAAEBYDADKYM+slg8//FDUKzU1Ve4AAGXt3LlTrGyZmZlyR/ngwQcAAGAywmIAUAZ7ZrXk5uaKeq1evVruAABlDRs2LDAw8NKlS3JH+eDBBwAAYDLCYgBQBntm5bRv3z4kJGTHjh3vA4Didu3aNXz4cPEYSkhIkBe7cvM+Dz4AAABzERYDgDLYMysnPT29Zs2aNwCAV6hatWpCQkJJSYm82JUbHnwAAAAmIywGAGWwZ1bRhQsXDhw4oL0vDwDUlZmZadqnT+je58EHAABgLsJiAFAGe2YAgE/hwQcAAGAywmIAUAZ7ZgCAT+HBBwAAYDLCYgBQBntmAIBP4cEHAABgMsJiAFAGe2YAgE/hwQcAAGAywmIAUAZ7ZgCAT+HBBwAAYDLCYgBQBntmAIBP4cEHAABgMsJiAFAGe2YAgE/hwQcAAGAywmIAUAZ7ZgCAT+HBBwAAYDLCYgBQBntmAIBP4cEHAABgMsJiAFAGe2YAgE/hwQcAAGAywmIAUAZ7ZgCAT+HBBwAAYDLCYgBQBntmAIBP4cEHAABgMsJiAFAGe2YAgE/hwQcAAGAywmIAUAZ7ZgCAT+HBBwAAYDLCYgBQBntmAIBP4cEHAABgMsJiAFAGe2YAgE/hwQcAAGAywmIAUAZ7ZgCAT+HBBwAAYDLCYgBQBntmAIBP4cEHAABgMsJiAFAGe2YAgE/hwQcAAGAywmIAUMaHH34o9sypqalyBwAA3mjnzp3iwZeZmSl3AAAAoHwQFgOAMnJzc8WeefXq1XIHAADeaNiwYYGBgZcuXZI7AAAAUD4IiwFAJe3btw8JCdmxY8f7AAB4r127dg0fPvyGG25ISEiQn4UAAAAoN4TFAKCS9PT0mjVr3gAAgLerWrVqQkJCSUmJ/CwEAABAuSEsBgDFXLhw4cCBA/JbsAAA8CKZmZl8+gQAAID5CIsBAAAAAAAAAITFAAAAAAAAAADCYgAAAAAAAADAFcJiAAAAAAAAAIDw/wAajfo50YnEsgAAAABJRU5ErkJggg==;" parent="1" vertex="1">
                    <mxGeometry x="70" y="140" width="1892" height="533" as="geometry"/>
                </mxCell>
            </root>
        </mxGraphModel>
    </diagram>
</mxfile>